<svg width="32" height="32" viewBox="0 0 32 32" xmlns="http://www.w3.org/2000/svg">
    <g fill="none">
        <circle fill="#586ADA" cx="16" cy="16" r="16"></circle>
        <path d="M16.533 12.667c-1.818 0-3.292 1.492-3.292 3.333a3.327 3.327 0 0 0 2.467 3.228l-.274 1.305a4.585 4.585 0 0 1-2.126-1.2H5v-2.666h6.971a4.765 4.765 0 0 1 0-1.334H5v-2.666h8.308a4.564 4.564 0 0 1 3.225-1.334H5v-2C5 8.597 5.59 8 6.317 8h11.748l-.99 4.712a3.273 3.273 0 0 0-.542-.045zm-1.127 8l-.7 3.333h-8.39A1.325 1.325 0 0 1 5 22.667v-2h10.406z" fill="#FFF"></path>
        <path d="M16.529 19.335c1.817 0 3.29-1.492 3.29-3.332 0-1.653-1.188-3.025-2.747-3.287L18.066 8h7.617c.727 0 1.316.597 1.316 1.333V22.66c0 .736-.59 1.333-1.316 1.333L14.703 24l1.002-4.77c.263.068.54.105.824.105z" fill="#9FCDFF"></path>
    </g>
</svg>