
<svg width="32px" height="32px" viewBox="0 0 32 32" version="1.1" xmlns="http://www.w3.org/2000/svg" xmlns:xlink="http://www.w3.org/1999/xlink">
    <g id="Page-1" stroke="none" stroke-width="1" fill="none" fill-rule="evenodd">
        <g id="ProductIcon-subscriptions" fill-rule="nonzero">
            <g id="Icon">
                <circle id="Oval" fill="#85D996" cx="16" cy="16" r="16"></circle>
                <path d="M23.3866667,3.33333333 C18.2509837,0.338413534 11.8153686,0.740032195 7.09188156,4.35021978 C2.36839452,7.96040736 0.291534217,14.0649213 1.83333333,19.8066667 C1.92040227,20.1930566 2.2896223,20.4477961 2.68175483,20.3920262 C3.07388737,20.3362562 3.35744434,19.9886773 3.33333333,19.5933333 C3.28677857,15.7594748 5.30144114,12.1955868 8.61028714,10.2585332 C11.9191331,8.3214796 16.0130329,8.30931344 19.3333333,10.2266667 C20.7133333,11.0266667 20.8066667,12.32 21.3333333,13.9133333 C22.2933333,16.8266667 22.14,20.0466667 19.4933333,21.68 C19.1922087,21.8633051 19.0660872,22.2363023 19.194177,22.5647376 C19.3222668,22.893173 19.6676155,23.0822968 20.0133333,23.0133333 C24.3755042,22.1740468 27.7608706,18.7191851 28.5113554,14.3408624 C29.2618403,9.96253973 27.2203124,5.57745838 23.3866667,3.33333333 Z" id="Shape" fill="#FFFFFF"></path>
                <circle id="Oval" fill="#09825D" cx="16" cy="16" r="6.66666667"></circle>
            </g>
        </g>
    </g>
</svg>