<svg xmlns="http://www.w3.org/2000/svg" width="73" height="73" viewBox="0 0 73 73">
    <g fill="none" transform="translate(.5 .736)">
        <path fill="#FFFFFF" d="M36,0 C55.882,0 72,16.117 72,36 C72,55.882 55.882,72 36,72 C16.118,72 0,55.882 0,36 C0,16.116 16.118,0 36,0 Z"></path>
        <path fill="#87BBFD" d="M18.5,54 C17.6715729,54 17,53.3284271 17,52.5 L17,30.5 C17,29.6715729 17.6715729,29 18.5,29 L37,29 L37,54 L18.5,54 Z M25,33 C25,32.4477153 24.5522847,32 24,32 L21,32 C20.4477153,32 20,32.4477153 20,33 L20,36 C20,36.5522847 20.4477153,37 21,37 L24,37 C24.5522847,37 25,36.5522847 25,36 L25,33 Z M25,41 C25,40.4477153 24.5522847,40 24,40 L21,40 C20.4477153,40 20,40.4477153 20,41 L20,44 C20,44.5522847 20.4477153,45 21,45 L24,45 C24.5522847,45 25,44.5522847 25,44 L25,41 Z M32,33 C32,32.4477153 31.5522847,32 31,32 L28,32 C27.4477153,32 27,32.4477153 27,33 L27,36 C27,36.5522847 27.4477153,37 28,37 L31,37 C31.5522847,37 32,36.5522847 32,36 L32,33 Z"></path>
        <path fill="#6772E5" d="M51.5,54 L47,54 L47,46 C47,45.4477153 46.5522847,45 46,45 L42,45 C41.4477153,45 41,45.4477153 41,46 L41,54 L35,54 L35,17.5 C35,16.6715729 35.6715729,16 36.5,16 L51.5,16 C52.3284271,16 53,16.6715729 53,17.5 L53,52.5 C53,53.3284271 52.3284271,54 51.5,54 Z M43,29 C43,28.4477153 42.5522847,28 42,28 L39,28 C38.4477153,28 38,28.4477153 38,29 L38,32 C38,32.5522847 38.4477153,33 39,33 L42,33 C42.5522847,33 43,32.5522847 43,32 L43,29 Z M43,37 C43,36.4477153 42.5522847,36 42,36 L39,36 C38.4477153,36 38,36.4477153 38,37 L38,40 C38,40.5522847 38.4477153,41 39,41 L42,41 C42.5522847,41 43,40.5522847 43,40 L43,37 Z M50,37 C50,36.4477153 49.5522847,36 49,36 L46,36 C45.4477153,36 45,36.4477153 45,37 L45,40 C45,40.5522847 45.4477153,41 46,41 L49,41 C49.5522847,41 50,40.5522847 50,40 L50,37 Z"></path>
        <path fill="#87BBFD" d="M49,33 L46,33 C45.4477153,33 45,32.5522847 45,32 L45,29 C45,28.4477153 45.4477153,28 46,28 L49,28 C49.5522847,28 50,28.4477153 50,29 L50,32 C50,32.5522847 49.5522847,33 49,33 Z M49,25 L46,25 C45.4477153,25 45,24.5522847 45,24 L45,21 C45,20.4477153 45.4477153,20 46,20 L49,20 C49.5522847,20 50,20.4477153 50,21 L50,24 C50,24.5522847 49.5522847,25 49,25 Z M42,25 L39,25 C38.4477153,25 38,24.5522847 38,24 L38,21 C38,20.4477153 38.4477153,20 39,20 L42,20 C42.5522847,20 43,20.4477153 43,21 L43,24 C43,24.5522847 42.5522847,25 42,25 Z M40,52 L48,52 C48.5522847,52 49,52.4477153 49,53 L49,54 L39,54 L39,53 C39,52.4477153 39.4477153,52 40,52 Z"></path>
    </g>
</svg>