<svg width="32px" height="32px" viewBox="0 0 32 32" version="1.1" xmlns="http://www.w3.org/2000/svg" xmlns:xlink="http://www.w3.org/1999/xlink">
    <g id="Page-1" stroke="none" stroke-width="1" fill="none" fill-rule="evenodd">
        <g id="ProductIcon-connect" fill-rule="nonzero">
            <g id="Icon">
                <circle id="Oval" fill="#7FD3ED" cx="16" cy="16" r="16"></circle>
                <path d="M18.9066667,0.266666667 L11.06,7.85333333 C10.8096081,8.10223353 10.6681552,8.4402821 10.6666667,8.79333333 L10.6666667,10.6666667 L20,10.6666667 C20.7363797,10.6666667 21.3333333,11.2636203 21.3333333,12 L21.3333333,21.3333333 L23.2066667,21.3333333 C23.5597179,21.3318448 23.8977665,21.1903919 24.1466667,20.94 L31.76,13.2066667 C30.5940634,6.63456115 25.4707887,1.47674157 18.9066667,0.266666667 L18.9066667,0.266666667 Z" id="Shape" fill="#067AB8"></path>
                <path d="M21.3333333,23.2066667 L21.3333333,21.3333333 L12,21.3333333 C11.2636203,21.3333333 10.6666667,20.7363797 10.6666667,20 L10.6666667,10.6666667 L8.79333333,10.6666667 C8.4402821,10.6681552 8.10223353,10.8096081 7.85333333,11.06 L1.85333333,17.06 C1.56094867,17.3521512 1.42058802,17.7633833 1.47333333,18.1733333 C2.41463611,24.5323855 7.38720107,29.5373803 13.74,30.52 C14.1488807,30.5744711 14.5599507,30.4366273 14.8533333,30.1466667 L20.9266667,24.1466667 C21.1819586,23.8999679 21.3283256,23.5616444 21.3333333,23.2066667 L21.3333333,23.2066667 Z" id="Shape" fill="#FFFFFF"></path>
            </g>
        </g>
    </g>
</svg>