
<svg xmlns="http://www.w3.org/2000/svg" width="20" height="20" viewBox="0 0 20 20"><path d="M16 4.7C13.1 1.4 8 1.1 4.7 4S1.1 12 4 15.3C5.5 17 6.6 17 9 17c4.4 0 9-2.6 9-7 0-1.9-.7-3.8-2-5.3zm-1.2.6l-2.2 2.5c-.3.3-.7.4-1.1.3L8.4 7c-.4-.1-.8 0-1 .2l-3.7 4.3-.1.1c-.1 0-.3-.1-.3-.2-.4-1.2-.3-2.4.1-3.6.9-2.7 3.2-4.6 6-4.8 2-.2 4 .5 5.5 1.9 0 .1 0 .3-.1.4z" fill="#a5b3bb"/><path d="M17.9 8.7l-5.2 4.2c-.3.2-.6.3-.9.2L8.3 12c-.3-.1-.7 0-.9.2L3.8 15c2.8 3.5 7.8 4 11.2 1.3 1.9-1.5 3-3.8 3-6.3 0-.4 0-.9-.1-1.3z" fill="#0d2b3e"/></svg>