<svg width="32px" height="32px" viewBox="0 0 32 32" version="1.1" xmlns="http://www.w3.org/2000/svg" xmlns:xlink="http://www.w3.org/1999/xlink">
    <g id="Page-1" stroke="none" stroke-width="1" fill="none" fill-rule="evenodd">
        <g id="ProductIcon-dashboard">
            <g id="Icon">
                <circle id="2" fill="#9FCDFF" fill-rule="nonzero" cx="16" cy="16" r="16"></circle>
                <path d="M3.37243586,25.8268988 C6.30027865,29.5837945 10.8679718,32 16,32 C24.836556,32 32,24.836556 32,16 C32,15.0147405 31.9109452,14.0502808 31.740446,13.1142313 L21.5123421,22.8479769 C20.825659,23.5014703 19.7745421,23.5831447 18.9951545,23.0435687 L13.0016903,18.8942473 C12.2237291,18.3556588 11.1747862,18.4359452 10.4878543,19.086657 L3.37243586,25.8268988 Z" id="1" fill="#556CD6" fill-rule="nonzero"></path>
                <path d="M1.29999995,15.9999998 C1.29999995,7.88141404 7.88141404,1.29999995 15.9999998,1.29999995 C20.6579533,1.29999995 24.8099052,3.46645037 27.5031903,6.84668609 L21.5123421,12.5479767 C20.825659,13.2014701 19.7745421,13.2831445 18.9951545,12.7435685 L13.0016903,8.59424715 C12.2237291,8.05565861 11.1747862,8.13594496 10.4878543,8.7866568 L1.36822496,17.425433 C1.32309105,16.9563806 1.29999995,16.4808868 1.29999995,15.9999998 Z" id="3" fill="#FFFFFF"></path>
            </g>
        </g>
    </g>
</svg>