<svg xmlns="http://www.w3.org/2000/svg" viewBox="0 0 48 48">
    <path d="M27.488,31.637a11.973,11.973,0,0,1,10.679-7.393v1.815a1.569,1.569,0,0,0,2.481,1.274l6.164-4.42a1.566,1.566,0,0,0,0-2.548l-6.164-4.42a1.566,1.566,0,0,0-2.481,1.274v1.825A17.165,17.165,0,0,0,22.153,31.119a8.413,8.413,0,0,1,5.334.518ZM24,44.28a5.333,5.333,0,1,0-5.333-5.333A5.333,5.333,0,0,0,24,44.28Z"></path>
    <path d="M.533,21.638a1.571,1.571,0,0,0,.656,1.274l6.164,4.42a1.58,1.58,0,0,0,.915.292,1.561,1.561,0,0,0,1.561-1.566V24.244a11.973,11.973,0,0,1,9.2,4.789c.12-.057.239-.115.359-.168a20.263,20.263,0,0,1,2.442-4.535,17.074,17.074,0,0,0-12-5.268V17.218a1.556,1.556,0,0,0-1.561-1.561,1.58,1.58,0,0,0-.92.287l-6.159,4.42A1.561,1.561,0,0,0,.533,21.638ZM24,21.777v0a20.823,20.823,0,0,1,2.6-2.213V13.046h1.82a1.566,1.566,0,0,0,1.274-2.481L25.274,4.4a1.566,1.566,0,0,0-2.548,0L18.3,10.566a1.566,1.566,0,0,0,1.274,2.481h1.82v6.494A20.512,20.512,0,0,1,24,21.777Z"></path>
</svg>