
<svg width="32px" height="32px" viewBox="0 0 32 32" version="1.1" xmlns="http://www.w3.org/2000/svg" xmlns:xlink="http://www.w3.org/1999/xlink">
    <g id="Page-1" stroke="none" stroke-width="1" fill="none" fill-rule="evenodd">
        <g id="ProductIcon-docs" fill-rule="nonzero">
            <g id="Icon">
                <circle id="Oval" fill="#556CD6" cx="16" cy="16" r="16"></circle>
                <path d="M11.6926667,8.66666667 C14.072,8.66666667 15.1853333,9.58666667 16,10.982 L16,24.3566667 C15.438,24.3566667 14.8853333,23.99 14.54,23.714 C13.4086667,22.8133333 11.1826667,22.8133333 8.80533333,22.8133333 L7.704,22.8133333 C7.42933333,22.8133333 7.16533333,22.7053333 6.97066667,22.5133333 C6.77637227,22.3214181 6.66690933,22.0597632 6.66666667,21.7866667 L6.66666667,9.696 C6.66666667,9.128 7.13133333,8.66933333 7.704,8.66933333 L11.6933333,8.66666667 L11.6926667,8.66666667 Z" id="Shape" fill="#FFFFFF"></path>
                <path d="M20.3106667,8.66666667 C17.9333333,8.66666667 16.8333333,9.63933333 16,10.96 L16.0053333,24.3566667 C16.5673333,24.3566667 17.1193333,23.99 17.4653333,23.714 C18.5953333,22.8133333 20.82,22.8133333 23.1953333,22.8133333 L24.296,22.8133333 C24.5706435,22.8136586 24.8342661,22.7053337 25.0293333,22.512 C25.2246667,22.3186667 25.3333333,22.0573333 25.3333333,21.7846667 L25.3333333,9.698 C25.3333333,9.42466667 25.2246667,9.16266667 25.03,8.97 C24.8349327,8.77666626 24.5713102,8.66834137 24.2966667,8.66866667 L20.3093333,8.66666667 L20.3106667,8.66666667 Z" id="Shape" fill="#9FCDFF"></path>
            </g>
        </g>
    </g>
</svg>