
<svg width="16px" height="16px" viewBox="0 0 16 16" version="1.1" xmlns="http://www.w3.org/2000/svg" xmlns:xlink="http://www.w3.org/1999/xlink">
    <g id="Icons" stroke="none" stroke-width="1" fill="none" fill-rule="evenodd">
        <g id="home" fill="#6b7c93">
            <path d="M1.5,7.42604606 L7.99999906,3.72708274 L14.5,7.42605146 L14.5,15 C14.5,15.5522847 14.0522847,16 13.5,16 L10,16 L10,11 C10,10.4477153 9.55228475,10 9,10 L7,10 C6.44771525,10 6,10.4477153 6,11 L6,16 L2.5,16 C1.94771525,16 1.5,15.5522847 1.5,15 L1.5,7.42604606 Z M7.9999995,2.00120735 L0.971895316,6.00070018 C0.43224296,5.98372423 0,5.54273331 0,5.00120735 C0,4.60186374 0.238586161,4.24080664 0.606878561,4.08280617 L7.60256562,0.0815988144 C7.85617012,-0.0271996048 8.14357329,-0.0271996048 8.39717779,0.0815988144 L15.3928648,4.08280617 C15.9022064,4.30131786 16.1372292,4.88963881 15.9178031,5.39685778 C15.7634409,5.75367707 15.4160734,5.98823602 15.0280707,6.00068612 L7.9999995,2.00120735 Z"></path>
        </g>
    </g>
</svg>