<?xml version="1.0" encoding="UTF-8"?>
<svg width="16px" height="16px" viewBox="0 0 16 16" version="1.1" xmlns="http://www.w3.org/2000/svg" xmlns:xlink="http://www.w3.org/1999/xlink">
    <!-- Generator: Sketch 52.6 (67491) - http://www.bohemiancoding.com/sketch -->
    <title>Icon--bank</title>
    <desc>Created with Sketch.</desc>
    <g id="bank" stroke="none" stroke-width="1" fill="none" fill-rule="evenodd">
        <path d="M1.01934059,6 C0.667366503,6.00643829 0.322615876,5.82645873 0.134138772,5.5 C-0.14199784,5.02170738 0.0218738952,4.41011697 0.500156536,4.1339746 C0.81901163,3.94987968 3.31895945,2.57188815 8,0 C12.6810405,2.57188815 15.1809884,3.94987968 15.4998435,4.1339746 C15.9781261,4.41011697 16.1419978,5.02170738 15.8658612,5.5 C15.6773841,5.82645873 15.3326335,6.00643829 14.9806594,6 L1.01934059,6 Z M11,14 L11,7.5 L14,7.5 L14,14 L14.999833,14 C15.5521178,14 15.999833,14.4477153 15.999833,15 L15.999833,16 L0.000166971756,16 L0.000166971756,15 C0.000166971756,14.4477153 0.447882222,14 1.00016697,14 L2,14 L2,7.5 L5,7.5 L5,14 L6.5,14 L6.5,7.5 L9.5,7.5 L9.5,14 L11,14 Z" fill="#000000"></path>
    </g>
</svg>