
<svg width="28px" height="28px" viewBox="0 0 28 28" version="1.1" xmlns="http://www.w3.org/2000/svg" xmlns:xlink="http://www.w3.org/1999/xlink">
    <g id="Page-1" stroke="none" stroke-width="1" fill="none" fill-rule="evenodd">
        <g id="ProductIcon-integrations" transform="translate(-2.000000, -3.000000)" fill-rule="nonzero">
            <g id="Icon" transform="translate(2.000000, 3.000000)">
                <path d="M27.9965,20.0074894 C27.978305,20.7531708 27.5479798,21.4239334 26.8858333,21.7387234 L14.8026667,27.442383 C14.293818,27.6845208 13.706182,27.6845208 13.1973333,27.442383 L1.11416667,21.7387234 C0.452929242,21.4232519 0.0235969675,20.7526281 0.00583333333,20.0074894 L0.00583333333,4.78502128 C0.0169166667,4.40374468 0.1365,4.04153191 0.341833333,3.73651064 L14,10.1765106 L27.664,3.73293617 C27.8658333,4.03795745 27.9848333,4.40017021 27.9965,4.78144681 L27.9965,20.0074894 Z" id="Shape" fill="#EFC078"></path>
                <path d="M27.9965,20.0074894 C27.978305,20.7531708 27.5479798,21.4239334 26.8858333,21.7387234 L14.8026667,27.442383 C14.55125,27.5615319 14.2776667,27.6228936 14,27.6234894 L14,10.1800851 L27.664,3.73651064 C27.8716947,4.04609848 27.9882861,4.40992959 28,4.78502128 L28,20.0057021 L27.9965,20.0074894 Z" id="Shape" fill="#BB5504"></path>
                <path d="M14,5.71914894 C10.3915,5.71914894 7.46666667,4.24765957 7.46666667,2.4306383 L7.46666667,0.238297872 L7.64983333,0.238297872 C8.32183333,1.7026383 10.9013333,2.79285106 14,2.79285106 C17.0986667,2.79642553 19.6805,1.7026383 20.3501667,0.238297872 L20.5333333,0.238297872 L20.5333333,2.4306383 C20.5333333,4.24765957 17.6085,5.71914894 14,5.71914894 Z" id="Shape" fill="#EFC078"></path>
            </g>
        </g>
    </g>
</svg>