<svg version="1.1" id="Layer_1" xmlns="http://www.w3.org/2000/svg" xmlns:xlink="http://www.w3.org/1999/xlink" x="0px" y="0px"
     viewBox="0 0 16 16" style="enable-background:new 0 0 16 16;" xml:space="preserve">
<style type="text/css">
	.st0{fill:#AAB7C4;}
	.st1{fill:#32325D;}
</style>
    <title>16-light-bg</title>
    <g>
	<path class="st0" d="M15.9,7l-0.5-2C14.2,2,11.3,0,8,0C3.6,0,0,3.6,0,8s3.6,8,8,8s8-3.6,8-8C16,7.7,16,7.3,15.9,7z M13.2,12.7
		C13,12.9,12.8,13,12.5,13H7c-1.1,0-2-0.9-2-2V7H1.7c0,0-0.1,0-0.1,0C1.3,6.9,1.1,6.7,1.2,6.4C1.3,6,1.4,5.7,1.5,5.3
		C1.6,5.1,1.8,5,2,5h3c0-1.1,0.9-2,2-2h5.5c0.3,0,0.5,0.1,0.7,0.3C14.3,4.6,15,6.3,15,8C15,9.7,14.4,11.4,13.2,12.7z"/>
</g>
    <path class="st1" d="M15.4,5H5v2h10.9C15.9,6.3,15.7,5.6,15.4,5z"/>
</svg>