
<svg width="32px" height="32px" viewBox="0 0 32 32" version="1.1" xmlns="http://www.w3.org/2000/svg" xmlns:xlink="http://www.w3.org/1999/xlink">
    <g id="Page-1" stroke="none" stroke-width="1" fill="none" fill-rule="evenodd">
        <g id="ProductIcon-issuing">
            <g id="Icon">
                <circle id="Oval" fill="#87BBFD" cx="16" cy="16" r="16"></circle>
                <path d="M25.5133333,5.33333333 L13.3333333,5.33333333 C11.860574,5.33333333 10.6666667,6.52724067 10.6666667,8 L10.6666667,10 L3.06,10 C2.79005905,9.99752525 2.54527005,10.1580858 2.44,10.4066667 C1.97848214,11.5344368 1.65610636,12.7142426 1.48,13.92 C1.45700401,14.1102065 1.51695238,14.3011126 1.64455538,14.4440279 C1.77215838,14.5869433 1.95508011,14.6680517 2.14666667,14.6666667 L10.6666667,14.6666667 L10.6666667,24 C10.6666667,25.4727593 11.860574,26.6666667 13.3333333,26.6666667 L25.5133333,26.6666667 C25.86543,26.6669476 26.2033447,26.5279473 26.4533333,26.28 C32.0608768,20.5737196 32.0608768,11.4262804 26.4533333,5.72 C26.2033447,5.47205273 25.86543,5.33305236 25.5133333,5.33333333 Z" id="Path" fill="#FFFFFF"></path>
                <path d="M30.8333333,10 L10.6666667,10 L10.6666667,14.6666667 L31.94,14.6666667 C31.8066667,13.0666667 31.44,11.4933333 30.8333333,10 Z" id="Path" fill="#556CD6"></path>
            </g>
        </g>
    </g>
</svg>