
<svg height="20" viewBox="0 0 20 20" width="20" xmlns="http://www.w3.org/2000/svg"><g fill="none" fill-rule="evenodd" transform="translate(1 2)"><circle cx="9" cy="8" fill="#a5b3bb" r="8"/><path d="m5.07145658 14.9690813c-1.07269299-.6052262-2.00356012-1.4551353-2.70409281-2.4922492l6.7672975-1.4384335c.81032401-.1722396 1.60684923.3450299 1.77908893 1.1553539s-.3450299 1.6068493-1.15535386 1.7790889zm-3.89663739-5.30578777c-.2205736-1.03771723-.22912468-2.07119137-.05492556-3.055347l9.70174027-2.06216856c.810324-.17223968 1.6068493.34502986 1.779089 1.15535387.1722397.810324-.3450299 1.60684925-1.1553539 1.77908893z" fill="#fff"/><path d="m12.9285434 1.03091875c1.072693.60522619 2.0035601 1.45513528 2.7040928 2.49224911l-5.78914987 1.2305218c-.81032401.17223969-1.60684925-.34502986-1.77908894-1.15535386-.17223968-.81032401.34502986-1.60684926 1.15535387-1.77908894zm3.8966374 5.30578772c.2205736 1.03771723.2291247 2.07119137.0549256 3.055347l-9.70174033 2.06216853c-.810324.1722397-1.60684925-.3450298-1.77908894-1.1553538-.17223968-.81032404.34502986-1.60684929 1.15535387-1.77908897z" fill="#0d2b3e"/></g></svg>