
<svg width="32px" height="32px" viewBox="0 0 32 32" version="1.1" xmlns="http://www.w3.org/2000/svg" xmlns:xlink="http://www.w3.org/1999/xlink">
    <g id="Page-1" stroke="none" stroke-width="1" fill="none" fill-rule="evenodd">
        <g id="ProductIcon-partners">
            <g id="Icon" transform="translate(-1.000000, 0.000000)">
                <circle id="Oval-2" fill="#9FCDFF" cx="17" cy="16" r="16"></circle>
                <path d="M9.14291315,29.9381625 C6.99752718,28.7277101 5.13579291,27.0278919 3.73472754,24.9536643 L17.2693225,22.0767973 C18.8899706,21.7323179 20.4830211,22.766857 20.8275004,24.387505 C21.1719798,26.008153 20.1374407,27.6012035 18.5167927,27.9456829 L9.14291315,29.9381625 Z" id="Combined-Shape" fill="#FFFFFF"></path>
                <path d="M1.34963839,19.3265871 C0.908491178,17.2511526 0.891389013,15.1842043 1.23978725,13.2158931 L20.6432679,9.09155594 C22.2639159,8.74707657 23.8569664,9.78161566 24.2014457,11.4022637 C24.5459251,13.0229117 23.511386,14.6159622 21.890738,14.9604415 L1.34963839,19.3265871 Z" id="Path" fill="#FFFFFF"></path>
                <path d="M24.8570868,2.0618375 C27.0024728,3.27228989 28.8642071,4.97210807 30.2652725,7.04633573 L18.6869727,9.50737932 C17.0663246,9.85185869 15.4732742,8.8173196 15.1287948,7.19667159 C14.7843154,5.57602358 15.8188545,3.98297309 17.4395025,3.63849372 L24.8570868,2.0618375 Z" id="Combined-Shape" fill="#556CD6"></path>
                <path d="M32.6503616,12.6734129 C33.0915088,14.7488474 33.108611,16.8157957 32.7602127,18.7841069 L13.3567321,22.9084441 C11.7360841,23.2529234 10.1430336,22.2183843 9.79855427,20.5977363 C9.4540749,18.9770883 10.488614,17.3840378 12.109262,17.0395585 L32.6503616,12.6734129 Z" id="Path" fill="#556CD6"></path>
            </g>
        </g>
    </g>
</svg>