<svg width="32px" height="32px" viewBox="0 0 32 32" version="1.1" xmlns="http://www.w3.org/2000/svg" xmlns:xlink="http://www.w3.org/1999/xlink">
    <g id="Page-1" stroke="none" stroke-width="1" fill="none" fill-rule="evenodd">
        <g id="ProductIcon-payments" fill-rule="nonzero">
            <g id="Icon">
                <circle id="Oval" fill="#9FCDFF" cx="16" cy="16" r="16"></circle>
                <path d="M20.6666667,6 L3.51333333,6 C0.513852319,9.74570177 -0.646071617,14.6398956 0.353333333,19.3333333 L11.3333333,19.3333333 L10,16.6666667 C7.790861,16.6666667 6,14.8758057 6,12.6666667 C6,10.4575277 7.790861,8.66666667 10,8.66666667 C12.209139,8.66666667 14,10.4575277 14,12.6666667 L22,14 L22,7.33333333 C22,6.59695367 21.4030463,6 20.6666667,6 Z" id="Shape" fill="#556CD6"></path>
                <path d="M29.1733333,12.6666667 L11.3333333,12.6666667 C10.5969537,12.6666667 10,13.2636203 10,14 L10,24.6666667 C10,25.4030463 10.5969537,26 11.3333333,26 L26.1266667,26 C26.5085879,26.0012039 26.8726897,25.8385718 27.1266667,25.5533333 C29.9130671,22.3185496 31.1454876,18.0269983 30.5,13.8066667 C30.4036535,13.1491587 29.8378525,12.6629678 29.1733333,12.6666667 Z M22,23.3333333 C19.790861,23.3333333 18,21.5424723 18,19.3333333 C18,17.1241943 19.790861,15.3333333 22,15.3333333 C24.209139,15.3333333 26,17.1241943 26,19.3333333 C26,21.5424723 24.209139,23.3333333 22,23.3333333 Z" id="Shape" fill="#FFFFFF"></path>
            </g>
        </g>
    </g>
</svg>