
<svg xmlns="http://www.w3.org/2000/svg" width="72" height="72" viewBox="0 0 72 72"><path fill="#9cdbff" d="M0 0h72v72H0z"/><path d="M30 34h-4a2 2 0 0 0 0 4h4a2 2 0 0 0 0-4z" fill="#555abf"/><circle cx="19" cy="36" r="2" fill="#555abf"/><path d="M60.41 34.59l-8-8a2 2 0 0 0-2.82 2.82L54.17 34H37a2 2 0 0 0 0 4h17.17l-4.58 4.59a2 2 0 1 0 2.82 2.82l8-8a2 2 0 0 0 0-2.82z" fill="#555abf"/><path d="M15 54h-4a2 2 0 0 0 0 4h4a2 2 0 0 0 0-4zm30.41.59l-8-8a2 2 0 0 0-2.82 2.82L39.17 54H22a2 2 0 0 0 0 4h17.17l-4.58 4.59a2 2 0 1 0 2.82 2.82l8-8a2 2 0 0 0 0-2.82z" fill="#7795f8"/><path d="M-3 14a2 2 0 0 0-2 2 2 2 0 0 0 2 2 2 2 0 0 0 2-2 2 2 0 0 0-2-2zm11 0H4a2 2 0 0 0 0 4h4a2 2 0 0 0 0-4zm30.41.59l-8-8a2 2 0 0 0-2.82 2.82L32.17 14H15a2 2 0 0 0 0 4h17.17l-4.58 4.59a2 2 0 1 0 2.82 2.82l8-8a2 2 0 0 0 0-2.82z" fill="#fff"/><path d="M-3 14a2 2 0 0 0-2 2 2 2 0 0 0 2 2 2 2 0 0 0 2-2 2 2 0 0 0-2-2zm11 0H4a2 2 0 0 0 0 4h4a2 2 0 0 0 0-4zm30.41.59l-8-8a2 2 0 0 0-2.82 2.82L32.17 14H15a2 2 0 0 0 0 4h17.17l-4.58 4.59a2 2 0 1 0 2.82 2.82l8-8a2 2 0 0 0 0-2.82z" fill="none"/><path d="M-3 14a2 2 0 0 0-2 2 2 2 0 0 0 2 2 2 2 0 0 0 2-2 2 2 0 0 0-2-2zm11 0H4a2 2 0 0 0 0 4h4a2 2 0 0 0 0-4zm30.41.59l-8-8a2 2 0 0 0-2.82 2.82L32.17 14H15a2 2 0 0 0 0 4h17.17l-4.58 4.59a2 2 0 1 0 2.82 2.82l8-8a2 2 0 0 0 0-2.82z" fill="none"/></svg>