
<svg width="14px" height="16px" viewBox="0 0 14 16" version="1.1" xmlns="http://www.w3.org/2000/svg" xmlns:xlink="http://www.w3.org/1999/xlink">
    <g id="Icons" stroke="none" stroke-width="1" fill="none" fill-rule="evenodd">
        <g id="subscriptionProduct" transform="translate(-1.000000, 0.000000)" fill="#6b7c93">
            <path d="M13.7880132,3.11864919 C13.7051416,3.23257794 13.6005061,3.32948017 13.4786739,3.40189934 L8.49939989,6.36166827 C8.18910917,6.54611058 7.81089083,6.54611058 7.50060011,6.36166827 L2.52132606,3.40189934 C2.39949394,3.32948017 2.29485835,3.23257794 2.21198685,3.11864919 L6.98963703,0.278729077 C7.61485181,-0.0929096923 8.38514819,-0.0929096923 9.01036297,0.278729077 L13.7880132,3.11864919 Z M14.9823722,4.76575676 C14.9940308,4.85604035 15,4.94769819 15,5.04023108 L15,10.9597689 C15,11.7030465 14.6148518,12.3898632 13.989637,12.761502 L9.01036297,15.7212709 C8.38514819,16.0929097 7.61485181,16.0929097 6.98963703,15.7212709 L2.01036297,12.761502 C1.38514819,12.3898632 1,11.7030465 1,10.9597689 L1,5.04023108 C1,4.94769819 1.00596923,4.85604035 1.01762775,4.76575676 C1.16473128,4.89861925 1.32577126,5.01789672 1.49939989,5.12110466 L6.47867394,8.08087358 C7.41881279,8.63970881 8.58118721,8.63970881 9.52132606,8.08087358 L14.5006001,5.12110466 C14.6742287,5.01789672 14.8352687,4.89861925 14.9823722,4.76575676 Z" id="product"></path>
        </g>
    </g>
</svg>