
<svg xmlns="http://www.w3.org/2000/svg" viewBox="0 0 48 48"><path fill="#A5B3BB" d="M41.364 21.886h6.538c.06.697.098 1.4.098 2.114 0 13.255-10.745 24-24 24S0 37.255 0 24 10.745 0 24 0c6.833 0 12.993 2.86 17.364 7.442v14.444z"/><path fill="#FFF" d="M37.746 37.4a1.3 1.3 0 0 1 .92-.38c.72 0 1.303.444 1.303 1.163 0 .503-.353.982-.708 1.292-3.484 3.122-8.325 5.53-13.783 5.53-11.75 0-19.486-9.538-19.486-18.83 0-8.72 7.195-16.19 15.25-16.19s11.227 5.54 11.227 5.54L37.747 37.4z"/><path fill="#0D2B3E" d="M47.995 24zm0 0c0-.995-.807-1.974-1.802-1.974-1.15 0-1.8.94-1.8 1.83-.09 3.174-1.228 7.127-3.453 10.182-2.355 3.232-6.91 6.956-13.242 6.956-7.625 0-13.213-5.767-13.213-11.925 0-4.3 2.886-7.17 5.828-7.17 1.588 0 2.48.683 2.965 1.312.362.468 1.063.493 1.482.074L40.968 7.032A23.926 23.926 0 0 1 47.995 24z"/></svg>