
<svg height="20" viewBox="0 0 20 20" width="20" xmlns="http://www.w3.org/2000/svg"><g fill="none" transform="translate(2 2)"><path d="m2 9h1c.55228475 0 1-.44771525 1-1s-.44771525-1-1-1h-1v-2h1c.55228475 0 1-.44771525 1-1s-.44771525-1-1-1h-1v-1c0-1.1045695.8954305-2 2-2h10c1.1045695 0 2 .8954305 2 2v12c0 1.1045695-.8954305 2-2 2h-10c-1.1045695 0-2-.8954305-2-2v-1h1c.55228475 0 1-.4477153 1-1s-.44771525-1-1-1h-1z" fill="#a5b3bb"/><g fill="#0d2b3e"><path d="m6 10h2v3h-2z"/><path d="m9 7h2v6h-2z"/><path d="m12 3h2v10h-2z"/><path d="m0 12c0-.5522847.44771525-1 1-1h1v2h-1c-.55228475 0-1-.4477153-1-1zm0-4c0-.55228475.44771525-1 1-1h1v2h-1c-.55228475 0-1-.44771525-1-1zm0-4c0-.55228475.44771525-1 1-1h1v2h-1c-.55228475 0-1-.44771525-1-1z"/></g></g></svg>