
<svg width="32px" height="32px" viewBox="0 0 32 32" version="1.1" xmlns="http://www.w3.org/2000/svg" xmlns:xlink="http://www.w3.org/1999/xlink">
    <g id="Page-1" stroke="none" stroke-width="1" fill="none" fill-rule="evenodd">
        <g id="ProductIcon-terminal">
            <g id="Icon">
                <path d="M25.3333333,5.33333333 L6.66666667,5.33333333 L0.126666667,18 C1.13881053,25.9958653 7.94032894,31.9906994 16,31.9906994 C24.0596711,31.9906994 30.8611895,25.9958653 31.8733333,18 L25.3333333,5.33333333 Z" id="Path" fill="#9FCDFF"></path>
                <path d="M6.66666667,16 L6.66666667,26.32 C6.65447029,26.9885527 6.97718532,27.6189728 7.52666667,28 C12.6039886,31.593727 19.3960114,31.593727 24.4733333,28 C25.0228147,27.6189728 25.3455297,26.9885527 25.3333333,26.32 L25.3333333,16 L6.66666667,16 Z" id="Path" fill="#FFFFFF"></path>
                <path d="M16,0 C11.4081955,0.000337075077 7.03785287,1.97347033 4.00078608,5.41743518 C0.963719294,8.86140004 -0.447308909,13.4442102 0.126666667,18 L31.8733333,18 C32.4473089,13.4442102 31.0362807,8.86140004 27.9992139,5.41743518 C24.9621471,1.97347033 20.5918045,0.000337075077 16,0 Z M25.3333333,14 L6.66666667,14 L6.66666667,9.33333333 C6.66666667,7.860574 7.860574,6.66666667 9.33333333,6.66666667 L22.6666667,6.66666667 C24.139426,6.66666667 25.3333333,7.860574 25.3333333,9.33333333 L25.3333333,14 Z" id="Shape" fill="#556CD6" fill-rule="nonzero"></path>
            </g>
        </g>
    </g>
</svg>