<?xml version="1.0" encoding="UTF-8"?>
<svg width="10px" height="12px" viewBox="0 0 10 12" version="1.1" xmlns="http://www.w3.org/2000/svg" xmlns:xlink="http://www.w3.org/1999/xlink">
    <!-- Generator: Sketch 49.3 (51167) - http://www.bohemiancoding.com/sketch -->
    <title>icon/legacy/lock</title>
    <desc>Created with Sketch.</desc>
    <defs></defs>
    <g id="icon/legacy/lock" stroke="none" stroke-width="1" fill="none" fill-rule="evenodd">
        <g fill="#000000" fill-rule="nonzero" id="icon-protection">
            <path d="M4.52341851,11.5326596 C3.40438149,11.5326596 2.28534448,11.5353868 1.16630747,11.5317506 C0.76905387,11.5299325 0.445433093,11.365395 0.205444651,11.0445013 C0.0754509116,10.8726914 0,10.6836096 0,10.4627112 C0.00181809426,8.87824203 -0.00272714138,7.29286383 0.00363618851,5.70748564 C0.00545428277,5.19296497 0.316348401,4.81207422 0.819960509,4.67571715 C0.94631806,4.64208241 1.07903894,4.61662909 1.20903268,4.61662909 C1.36084355,4.61753814 1.41175019,4.5648134 1.41084114,4.41209349 C1.40629591,3.69576435 1.38993306,2.97761712 1.42084066,2.26219703 C1.45083922,1.57950263 1.67446481,0.965895823 2.24807355,0.53318939 C2.56624004,0.293200948 2.90622367,0.077756779 3.31620392,0.0613939307 C4.06434971,0.0304863283 4.81885883,-0.0340560177 5.56245938,0.0223049042 C6.48150602,0.0923015331 7.12965662,0.62500315 7.47418549,1.48132554 C7.57690781,1.73676779 7.61508779,2.02948096 7.62236017,2.30764938 C7.6423592,3.00670663 7.63235969,3.70576387 7.6269054,4.40573016 C7.62508731,4.55663198 7.65781301,4.62571956 7.82780482,4.61753814 C8.40868593,4.58935768 8.78321335,4.89207037 9.00956609,5.40022771 C9.04774606,5.48567814 9.03956464,5.59567285 9.04047369,5.69384994 C9.04320083,6.59107945 9.04410988,7.48830897 9.04501892,8.38644753 C9.04501892,9.0455067 9.03501941,9.70365682 9.04592797,10.362716 C9.05501844,10.8681462 8.81866619,11.2154022 8.38323261,11.4290283 C8.23960317,11.4999339 8.06142993,11.5290235 7.8987105,11.5299325 C6.7742192,11.5381139 5.6497279,11.5344777 4.5252366,11.5344777 C4.52432756,11.5344777 4.52432756,11.5353868 4.52432756,11.5353868 L4.52341851,11.5326596 Z M6.08152529,4.60572052 C6.08879766,4.55935912 6.09607004,4.53208771 6.09607004,4.50390725 C6.09516099,3.73030814 6.09516099,2.95579999 6.09061576,2.18129183 C6.09061576,2.12765805 6.06425339,2.07402427 6.04425435,2.02220859 C5.91426061,1.67858877 5.63972838,1.54768598 5.29883571,1.54314075 C4.78067885,1.53405028 4.26252198,1.54041361 3.74436512,1.54132266 C3.3080225,1.5422317 2.92531366,1.85494391 2.93804032,2.34037508 C2.95531221,3.03306899 2.94167651,3.72667195 2.94258555,4.41845682 C2.94258555,4.48027202 2.95167602,4.54117818 2.95622126,4.60662957 L6.08243433,4.60662957 L6.08152529,4.60572052 Z M4.06253161,8.90914963 C4.06253161,9.18277281 4.06071352,9.456396 4.06344066,9.72911014 C4.06434971,9.88819338 4.1607087,9.98546143 4.31797386,9.99091571 C4.43978617,9.99546095 4.56250754,9.99364285 4.68431985,9.99182476 C4.89703688,9.98909762 4.97794207,9.91273766 4.97976017,9.70002063 C4.98248731,9.20458994 4.98521445,8.71006831 4.97703303,8.21554667 C4.97430588,8.048282 5.02975776,7.93010587 5.15429722,7.81647498 C5.51609797,7.48467278 5.55973223,6.98651495 5.32156189,6.60653325 C5.06611964,6.19928014 4.60068751,6.04201499 4.16434489,6.22564251 C3.82617936,6.3683629 3.59982663,6.69380178 3.5780095,7.05287539 C3.55891951,7.3674057 3.67709563,7.62739318 3.91435693,7.83374687 C4.01707926,7.92374254 4.07253113,8.02737391 4.06434971,8.17645764 C4.05162305,8.41917323 4.06162257,8.66461595 4.06253161,8.90914963 Z"></path>
        </g>
    </g>
</svg>