<?xml version="1.0" encoding="UTF-8"?>
<svg width="1189px" height="582px" viewBox="0 0 1189 582" version="1.1" xmlns="http://www.w3.org/2000/svg" xmlns:xlink="http://www.w3.org/1999/xlink">
    <!-- Generator: Sketch 49.1 (51147) - http://www.bohemiancoding.com/sketch -->
    <title>PG_watermark</title>
    <desc>Created with Sketch.</desc>
    <defs></defs>
    <g id="Page-1" stroke="none" stroke-width="1" fill="none" fill-rule="evenodd" opacity="1">
        <g id="PG_watermark" fill="#2a213e" fill-rule="nonzero">
            <g id="Group">
                <g>
                    <path d="M344.5,309.9 L344.5,342.5 L378.3,342.5 C376.6,360.9 362.9,370.3 344.9,370.3 C317.7,370.3 302.8,345.1 302.8,320.3 C302.8,295.6 317,270 344.3,270 C361,270 373.1,280.1 378.8,295.4 L423.7,295.4 C413.9,252.9 379,234.3 346.2,234.3 C294.8,234.3 259.7,268.3 259.7,320.1 C259.7,370.2 294.5,404.2 344.7,404.2 C371.3,404.2 394.8,394.7 410.5,372.9 C424.7,353 426.4,333.2 426.8,309.9 L344.5,309.9 Z M837.8,239.5 L837.8,398.9 L928.5,398.9 L928.5,363.8 L879.2,363.8 L879.2,336.3 L925.9,336.3 L925.9,301.2 L879.2,301.2 L879.2,274.6 L928.5,274.6 L928.5,239.5 L837.8,239.5 Z M720.3,363.8 L729.6,363.8 C754.4,363.8 775.5,350.3 775.5,319.2 C775.5,290.6 756.7,274.6 730,274.6 L720.3,274.6 L720.3,363.8 Z M678.8,239.5 L737.6,239.5 C781.6,239.5 817.3,275.2 817.3,319.2 C817.3,363.2 781.6,398.9 737.6,398.9 L678.8,398.9 L678.8,239.5 Z M652.2,239.5 L610.7,239.5 L610.7,398.9 L652.2,398.9 L652.2,239.5 Z M542.7,239.5 L542.7,323.6 C542.7,344.3 541.2,367.1 514.6,367.1 C488,367.1 486.5,344.5 486.5,323.6 L486.5,239.5 L445,239.5 L445,329.2 C445,349.7 445.8,370 461.7,385.4 C475,398.5 496,403.2 514.6,403.2 C533.2,403.2 554.1,398.5 567.4,385.4 C583.3,370 584.1,349.7 584.1,329.2 L584.1,239.5 L542.7,239.5 Z M827.5,60.1 L793.3,145.3 L761,60.1 L720.2,60.1 L693.1,219.5 L734.3,219.5 L747.6,127.7 L748,127.7 L784.6,219.5 L801.1,219.5 L839.5,127.7 L839.9,127.7 L851.5,219.5 L893,219.5 L868.8,60.1 L827.5,60.1 Z M636.6,60.1 L636.6,144.2 C636.6,164.9 635.1,187.7 608.5,187.7 C581.9,187.7 580.4,165.1 580.4,144.2 L580.4,60.1 L539,60.1 L539,149.8 C539,170.3 539.8,190.6 555.7,206 C569,219.1 590,223.8 608.6,223.8 C627.2,223.8 648.1,219.1 661.4,206 C677.2,190.5 678.1,170.3 678.1,149.8 L678.1,60.1 L636.6,60.1 Z M435.1,60.1 L435.1,219.5 L526.2,219.5 L526.2,184.4 L476.5,184.4 L476.5,60.1 L435.1,60.1 Z M336.8,133.3 L343.8,133.3 C358.8,133.3 373.6,133.3 373.6,113.9 C373.6,93.8 359.9,93.6 343.8,93.6 L336.8,93.6 L336.8,133.3 Z M295.3,60.1 L358.8,60.1 C393.1,60.1 416.8,76 416.8,112.5 C416.8,150.2 396.5,166.6 360.3,166.6 L336.8,166.6 L336.8,219.5 L295.3,219.5 L295.3,60.1 Z" id="Shape"></path>
                    <path d="M387.3,483.1 C387.3,491.8 393.7,498.1 401.5,498.1 C409.3,498.1 415.7,491.8 415.7,483.1 C415.7,476.2 409.3,469.8 401.5,469.8 C393.7,469.8 387.3,476.1 387.3,483.1 M429.4,483 C429.4,499.3 417.7,510.8 401.6,510.8 C385.4,510.8 373.8,499.3 373.8,483 C373.8,467.8 387.1,457.1 401.6,457.1 C416,457.1 429.4,467.8 429.4,483" id="Shape"></path>
                    <polygon id="Shape" points="468.6 469.8 468.6 478.3 482.9 478.3 482.9 489.3 468.6 489.3 468.6 509.1 455.5 509.1 455.5 458.8 484.4 458.8 484.4 469.8"></polygon>
                    <polygon id="Shape" points="524.8 469.8 524.8 478.3 539.1 478.3 539.1 489.3 524.8 489.3 524.8 509.1 511.7 509.1 511.7 458.8 540.6 458.8 540.6 469.8"></polygon>
                    <rect id="Rectangle-path" x="567.9" y="458.8" width="13.1" height="50.3"></rect>
                    <path d="M645.6,475.6 C642.9,472 638.6,470.1 634.1,470.1 C626.1,470.1 620.7,476.2 620.7,484 C620.7,491.9 626.2,497.7 634.3,497.7 C638.6,497.7 642.8,495.6 645.6,492.4 L645.6,508.1 C641.3,509.4 638.1,510.4 634.1,510.4 C627.1,510.4 620.4,507.7 615.2,503 C609.7,498 607.1,491.5 607.1,484 C607.1,477.1 609.7,470.5 614.5,465.6 C619.4,460.5 626.6,457.5 633.7,457.5 C637.9,457.5 641.8,458.4 645.6,460 L645.6,475.6 Z" id="Shape"></path>
                    <rect id="Rectangle-path" x="673.7" y="458.8" width="13.1" height="50.3"></rect>
                    <path d="M737.3,474.3 L737.2,474.3 L731.8,490.3 L742.7,490.3 L737.3,474.3 Z M728.2,500.3 L724.7,509 L710.8,509 L730.2,458.7 L744.5,458.7 L763.5,509 L749.6,509 L746.3,500.3 L728.2,500.3 Z" id="Shape"></path>
                    <polygon id="Shape" points="800.6 498 816.3 498 816.3 509.1 787.5 509.1 787.5 458.8 800.6 458.8"></polygon>
                    <path d="M362.4,542.9 C360,540.9 356.9,539.6 353.7,539.6 C351.3,539.6 348.1,541 348.1,543.8 C348.1,546.7 351.6,547.9 353.9,548.6 L357.2,549.6 C364.2,551.7 369.6,555.2 369.6,563.4 C369.6,568.4 368.4,573.5 364.4,576.9 C360.5,580.2 355.2,581.6 350.1,581.6 C343.8,581.6 337.5,579.5 332.4,575.9 L338,565.4 C341.3,568.3 345.1,570.6 349.6,570.6 C352.7,570.6 355.9,569.1 355.9,565.5 C355.9,561.8 350.8,560.6 348,559.8 C339.8,557.5 334.4,555.3 334.4,545.6 C334.4,535.4 341.7,528.7 351.8,528.7 C356.9,528.7 363.1,530.3 367.6,532.8 L362.4,542.9 Z" id="Shape"></path>
                    <polygon id="Shape" points="409 541.1 409 549.5 423.8 549.5 423.8 560.6 409 560.6 409 569.2 424.6 569.2 424.6 580.3 396 580.3 396 530 424.6 530 424.6 541.1"></polygon>
                    <polygon id="Shape" points="465.8 569.2 481.5 569.2 481.5 580.3 452.7 580.3 452.7 530 465.8 530"></polygon>
                    <polygon id="Shape" points="518.9 541.1 518.9 549.5 533.6 549.5 533.6 560.6 518.9 560.6 518.9 569.2 534.4 569.2 534.4 580.3 505.8 580.3 505.8 530 534.4 530 534.4 541.1"></polygon>
                    <path d="M598.5,546.9 C595.8,543.3 591.5,541.4 587,541.4 C579,541.4 573.6,547.5 573.6,555.3 C573.6,563.2 579.1,569 587.2,569 C591.5,569 595.7,566.9 598.5,563.7 L598.5,579.4 C594.2,580.7 591,581.7 587,581.7 C580,581.7 573.3,579 568.1,574.3 C562.6,569.3 560,562.8 560,555.3 C560,548.4 562.6,541.8 567.4,536.9 C572.3,531.8 579.5,528.8 586.6,528.8 C590.8,528.8 594.7,529.7 598.5,531.3 L598.5,546.9 Z" id="Shape"></path>
                    <polygon id="Shape" points="646.7 580.3 633.6 580.3 633.6 541.1 622.8 541.1 622.8 530 657.5 530 657.5 541.1 646.7 541.1"></polygon>
                    <rect id="Rectangle-path" x="682.3" y="530" width="13.1" height="50.3"></rect>
                    <path d="M735,554.3 C735,563 741.4,569.3 749.2,569.3 C757,569.3 763.4,563 763.4,554.3 C763.4,547.4 757,541 749.2,541 C741.4,541 735,547.3 735,554.3 M777.1,554.2 C777.1,570.5 765.4,582 749.3,582 C733.1,582 721.5,570.5 721.5,554.2 C721.5,539 734.9,528.3 749.3,528.3 C763.7,528.3 777.1,539 777.1,554.2" id="Shape"></path>
                    <polygon id="Shape" points="803.2 530 816.3 530 840.2 560.8 840.4 560.8 840.4 530 853.4 530 853.4 580.3 840.4 580.3 816.4 549.5 816.3 549.5 816.3 580.3 803.2 580.3"></polygon>
                    <path d="M113.2,548.7 C116.4,551.1 119.5,553.4 122.7,555.3 C125.9,557.2 129.1,558.9 132.2,560.5 C138.4,563.7 144.2,566.5 149.8,568.7 C152.5,569.9 155.3,570.8 158,571.5 C160.7,572.2 163.3,572.9 165.9,573.4 C171,574.5 175.7,575.3 180.2,575.7 C184.7,576.1 188.7,576.4 192.7,576 C196.6,575.6 200.2,575.1 203.6,574.3 C210.3,572.8 215.9,570.6 220.6,568 C229.9,562.9 235.7,556.6 239.2,551.6 C242.7,546.6 244,543 244,543 C244,543 241,540.6 235.4,538 C232.6,536.7 229.1,535.4 225,534.3 C222.9,533.8 220.7,533.3 218.4,532.9 C216,532.6 213.5,532.1 210.9,531.6 C205.7,530.8 199.8,530.4 193.2,530.6 C189.9,530.7 186.4,530.9 182.7,531.3 C179,531.8 175.3,531.9 171.3,532.5 C163.4,533.6 154.6,535.4 144.9,538.1 C140.1,539.4 134.9,541.1 129.7,542.7 C124.3,544.7 118.8,546.5 113.2,548.7" id="Shape"></path>
                    <path d="M223.5,427.2 C224.7,429 225.9,430.8 227,432.6 C228.3,434.2 229.5,435.9 230.6,437.5 C232.9,440.8 234.8,444.1 236.6,447.5 C237.4,449.2 238.4,450.8 239.3,452.3 C240.2,453.8 241,455.4 241.8,456.9 C243.4,460 244.7,463.1 245.9,466.2 C247.1,469.2 248,472.5 249,475.3 C250,478.2 250.8,481 251.5,483.8 C252.8,489.4 253.5,494.8 253.8,499.8 C254.3,509.9 253,518.5 251.4,524.4 C249.8,530.4 248,533.7 248,533.7 C248,533.7 244.4,532.8 239.2,529.8 C236.6,528.3 233.6,526.3 230.4,523.8 C228.8,522.5 227.2,521.1 225.6,519.5 C224,518 222.5,516 221.1,513.9 C218.3,509.6 215.7,504.7 213.7,499.1 C212.7,496.3 211.8,493.3 211.1,490.1 C210.4,487 210.2,483.3 210,479.6 C209.8,472.2 210.5,464.2 212.6,455.5 C213.7,451.1 214.9,446.8 216.7,442 C218.7,437.2 220.9,432.3 223.5,427.2" id="Shape"></path>
                    <path d="M43.8,451.6 C48,458 52.9,463.6 57.3,468.7 C61.7,473.8 66,478.4 70.7,482.2 C75.3,486.1 79.7,489.4 83.9,492.3 C86,493.8 88.1,495.1 90.1,496.3 C92.2,497.4 94.3,498.5 96.4,499.4 C104.6,503.2 111.9,505.4 118.4,506.5 C121.6,507.1 124.8,507.3 127.8,507.3 C130.8,507.3 133.5,507 136.1,506.6 C146.4,505 153.5,501.1 158.2,497.7 C162.9,494.3 165,491.4 165,491.4 C165,491.4 162.8,488.3 158.1,484.2 C156.9,483.2 155.6,482.1 154.1,481 C152.6,479.9 151,478.8 149.4,477.4 C146,474.9 142.1,472.3 137.3,469.9 C134.9,468.7 132.4,467.5 129.6,466.4 C126.8,465.3 124.2,464 121.2,462.8 C115.2,460.5 108.4,458.5 100.6,456.8 C96.6,456 92.8,455.1 88.6,454.4 C84.4,453.7 79.9,453.1 75.2,452.6 C65.9,451.9 55,451.5 43.8,451.6" id="Shape"></path>
                    <path d="M179,378.6 C180.3,383.1 181.9,386.9 182.9,390.9 C183.9,394.9 184.7,398.8 185.7,402.3 C186.6,405.9 187.2,409.4 187.6,412.8 C187.8,414.5 188,416.2 188.1,417.9 C188.3,419.5 188.5,421 188.7,422.6 C189.3,428.8 189.2,434.8 188.6,440.4 C188.3,443.2 187.9,445.8 187.6,448.3 C187.2,450.8 186.7,453.2 186.2,455.5 C184,464.7 180.4,472 177.3,476.9 C174.2,481.8 171.6,484.3 171.6,484.3 C171.6,484.3 168.4,482.4 164.3,478.1 C163.3,477 162.2,475.8 161,474.5 C159.8,473.2 158.7,471.6 157.8,469.8 C155.8,466.2 153.9,462.1 152.3,457.4 C151.5,455 150.9,452.6 150.3,449.9 C149.8,447.3 149.7,444.3 149.6,441.4 C149.5,435.4 150.2,429 151.9,422.4 C152.7,419.1 154.1,415.5 155.6,411.9 C157.2,408.3 159.1,404.7 161.3,401 C165.9,393.5 171.4,386.3 179,378.6" id="Shape"></path>
                    <path d="M9.6,344.4 C11.7,351.1 14.5,357.4 17.2,363.1 C19.9,368.8 22.4,374.1 25.5,378.8 C28.5,383.6 31.5,387.8 34.4,391.7 C35.9,393.6 37.3,395.4 38.8,397.1 C40.4,398.8 41.9,400.4 43.5,401.8 C49.7,407.7 55.5,412.1 61,415.2 C66.7,418.3 72.1,420.1 76.9,421.1 C86.5,423.1 94.1,422 99.3,420.6 C104.5,419.1 107.3,417.2 107.3,417.2 C107.3,417.2 106.2,413.5 103.3,408.1 C101.8,405.4 99.8,402.3 97.3,398.9 C95,395.4 92.1,391.7 88.6,387.9 C86.8,386 84.9,384.1 82.7,382.1 C80.5,380.2 78.5,378.1 76,376.2 C71.2,372.2 65.6,368.3 59.1,364.5 C52.8,360.7 45.7,357 37.4,353.6 C33.3,351.9 28.9,350.3 24.2,348.7 C19.6,347.1 14.8,345.7 9.6,344.4" id="Shape"></path>
                    <path d="M149.1,311.9 C149.4,317.1 149.9,321.8 150,326.3 C150.2,330.8 149.9,335.2 150,339.1 C150,343.1 149.7,346.8 149.3,350.5 C149.1,352.3 148.8,354.1 148.6,355.8 C148.4,357.5 148.2,359.1 147.9,360.7 C146.8,367 145.2,372.8 143.1,378 C141.3,383 139.2,387.5 136.8,391.4 C132.1,399.2 126.8,404.8 122.6,408.2 C118.4,411.7 115.3,413 115.3,413 C115.3,413 113,410.1 110.6,404.6 C109.4,401.9 108,398.5 107,394.6 C106.2,390.6 105.6,386 105.5,381.1 C105.5,378.6 105.5,376 105.8,373.4 C106,370.8 106.7,367.9 107.4,365.1 C108.9,359.4 111.1,353.5 114.3,347.5 C117.7,341.5 122.2,335.3 127.9,329.4 C130.7,326.4 133.9,323.5 137.3,320.6 C141,317.6 144.9,314.7 149.1,311.9" id="Shape"></path>
                    <path d="M0.3,240.6 C1.5,247.1 2.7,253.2 4.1,258.8 C5.6,264.5 7.3,269.8 9,274.6 C12.4,284.3 16.7,292.6 20.7,299.2 C22.8,302.6 25.1,305.6 27.2,308.3 C29.4,311 31.6,313.4 33.8,315.4 C38.1,319.6 42.5,322.6 46.6,324.7 C54.9,329 62,330 67.1,330 C72.2,330 75.1,329 75.1,329 C75.1,329 74.9,325.2 73.4,319.3 C72.6,316.3 71.5,312.8 70.2,308.9 C68.8,305 66.9,300.7 64.4,296.2 C63.1,294 61.9,291.6 60.4,289.3 C58.9,287 57.3,284.6 55.4,282.2 C51.7,277.4 47.4,272.5 42.3,267.6 C37.2,262.8 31.1,257.9 24.2,253.4 C17.3,248.9 9.4,244.5 0.3,240.6" id="Shape"></path>
                    <path d="M132.8,231.8 C132.6,237.4 132.2,242.7 131.6,247.7 C131.1,252.6 130.5,257.1 129.7,261.4 C128.1,270 126.4,277.2 124,283.7 C122.8,286.9 121.7,289.8 120.5,292.6 C119.2,295.3 117.9,297.9 116.5,300.2 C113.6,304.9 110.7,308.8 107.8,312 C101.9,318.5 95.9,322.3 91.3,324.5 C86.7,326.7 83.6,327.1 83.6,327.1 C83.6,327.1 82.2,323.7 81.1,317.7 C80.5,314.7 80.1,311.2 80.2,307.1 C80.2,303 80.6,298.4 81.4,293.6 C81.8,291.2 82.5,288.6 83.3,286.1 C84.1,283.5 85.1,280.9 86.2,278.2 C88.4,272.9 91.6,267.4 95.7,262 C99.8,256.6 104.7,251.3 110.9,246.2 C117.1,241.1 124.4,236.2 132.8,231.8" id="Shape"></path>
                    <path d="M25.3,143.8 C23.8,149.5 23,155.2 22.2,160.4 C21.4,165.5 21.2,170.7 21.1,175.4 C21.1,180.1 21.1,184.4 21.7,188.6 C22.2,192.8 22.9,196.6 23.7,200 C24.4,203.4 25.7,206.7 26.9,209.6 C28.1,212.5 29.4,215.1 30.8,217.4 C32.1,219.7 33.5,221.7 35.1,223.5 C36.7,225.3 38.2,226.9 39.7,228.2 C45.9,233.5 51.7,235.3 55.9,236 C60.1,236.7 62.8,236.3 62.8,236.3 C62.8,236.3 63.3,233.2 63.1,228.1 C63,225.6 62.5,222.5 62.3,219.1 C61.9,215.7 61.3,211.9 60.2,207.7 C59.3,203.6 58.1,199.1 56.3,194.2 C54.4,189.3 52.6,184.3 49.8,178.9 C47,173.4 43.8,167.8 39.8,162 C35.9,156.3 30.9,150 25.3,143.8" id="Shape"></path>
                    <path d="M131.8,180.2 C129.9,183.8 128.4,187.1 126.6,190.2 C124.7,193.3 123.3,196 121.7,198.6 C120.1,201.2 118.2,203.6 116.8,205.7 C115.3,207.9 113.6,209.9 112,211.7 C110.2,213.6 108.9,215.2 107.3,216.8 C105.7,218.4 104.1,219.8 102.5,221.1 C100.9,222.4 99.2,223.7 97.7,224.8 C96.2,225.9 94.7,226.9 93.2,227.8 C87.2,231.5 81.4,233.7 77.2,234.8 C73,235.9 70.3,235.9 70.3,235.9 C70.3,235.9 69.7,233 69.8,228.2 C69.9,225.8 69.9,222.9 70.9,219.7 C71.8,216.5 73,213.1 74.7,209.6 C76.7,206.1 79.2,202.5 82.3,199.2 C85.3,195.8 89.6,192.7 94.1,189.9 C98.6,187.2 104.2,184.9 110.5,183.2 C116.9,181.5 123.7,180.5 131.8,180.2" id="Shape"></path>
                    <path d="M66.8,67.3 C64.3,72.3 62.3,77.2 60.5,81.7 C58.7,86.2 57.4,90.7 56.2,94.8 C53.8,103 53,110.6 52.6,117 C52.4,120.2 52.6,123.3 52.8,126.1 C53.1,128.9 53.5,131.5 54,133.9 C55,138.6 56.6,142.6 58.4,145.9 C62,152.4 66.3,156.1 69.6,158.2 C73,160.3 75.4,160.9 75.4,160.9 C75.4,160.9 76.9,158.2 78.5,153.5 C79.2,151.1 80,148.2 80.8,145 C81.6,141.7 82.2,138 82.5,133.8 C82.9,129.7 83.1,125.2 82.8,120.3 C82.5,115.4 82,110.2 80.9,104.6 C79.7,99 78.1,93.1 75.9,86.9 C73.6,80.7 70.5,74.1 66.8,67.3" id="Shape"></path>
                    <path d="M154.8,120.3 C152.2,123.8 149.7,127 147.2,130 C144.6,132.9 142.5,135.7 140.1,138.2 C135.3,143.2 131.2,147.3 126.9,150.6 C124.7,152.3 122.8,153.8 120.8,155.1 C118.8,156.4 116.9,157.6 114.9,158.6 C111,160.6 107.5,162 104.2,163 C97.6,164.9 91.9,165 87.9,164.6 C83.9,164.2 81.7,163.2 81.7,163.2 C81.7,163.2 82.2,160.2 84,155.7 C84.9,153.4 86.1,150.8 88,148 C89.8,145.2 92,142.2 94.6,139.3 C97.4,136.4 100.7,133.5 104.5,130.9 C108.2,128.2 112.8,126 117.8,124.1 C122.7,122.2 128.3,120.9 134.5,120.2 C140.8,119.4 147.4,119.4 154.8,120.3" id="Shape"></path>
                    <path d="M123.4,0.8 C119.6,5.5 115.7,10 113,14.2 C110.2,18.4 107.5,22.5 105.6,26.3 C103.6,30.1 101.8,33.7 100.5,37.2 C99.2,40.7 98.1,43.9 97.2,46.9 C95.4,53 94.9,58.4 94.8,63 C94.7,67.6 95.3,71.6 96.2,75 C98,81.7 101.1,86 103.6,88.6 C106.2,91.2 108.2,92.2 108.2,92.2 C108.2,92.2 110.2,89.9 112.7,85.6 C115.1,81.2 118.4,75.2 120.8,67.3 C122.1,63.4 123.3,59.1 124.1,54.4 C125,49.7 125.7,44.7 126,39.1 C126.3,33.6 126.4,27.7 125.9,21.4 C125.5,15 124.8,8.1 123.4,0.8" id="Shape"></path>
                    <path d="M189.1,66.5 L189,66.6 L188.9,66.7 L188.6,66.9 L188.1,67.4 L187,68.3 C186.3,68.9 185.6,69.5 184.9,70 C183.5,71.1 182.1,72.2 180.7,73.4 C177.9,75.8 175.1,77.7 172.6,79.8 C170,81.9 167.4,83.6 164.9,85.3 C162.5,87 160.1,88.5 157.8,89.8 C153.1,92.4 149,94.5 145,95.9 C141,97.3 137.4,98.2 134.1,98.6 C127.6,99.5 122.4,98.7 118.9,97.6 C115.4,96.5 113.6,95.2 113.6,95.2 C113.6,95.2 114.8,92.4 117.5,88.3 C120.1,84.2 124.7,79 130.9,74 C134.1,71.6 137.8,69.3 141.8,67.3 C145.9,65.4 150.5,63.8 155.5,62.8 C160.5,61.8 165.9,61.5 171.5,61.9 C174.3,62.2 177.3,62.7 180.2,63.4 C181.7,63.8 183.2,64.2 184.7,64.6 C185.4,64.8 186.2,65.1 187,65.4 L188.1,65.8 L188.7,66 L189,66.1 L189.1,66.2 L189.1,66.5 Z" id="Shape"></path>
                    <path d="M1073.7,548.8 C1070.5,551.1 1067.4,553.4 1064.2,555.4 C1061,557.3 1057.8,559 1054.7,560.6 C1048.5,563.8 1042.7,566.5 1037.1,568.7 C1034.4,569.9 1031.6,570.7 1028.9,571.4 C1026.2,572.1 1023.6,572.8 1021,573.3 C1015.9,574.4 1011.2,575.1 1006.7,575.5 C1002.2,575.9 998.2,576.2 994.2,575.8 C990.3,575.4 986.7,574.8 983.3,574 C976.6,572.5 971,570.2 966.4,567.6 C957.1,562.5 951.4,556.1 947.9,551.1 C944.4,546.1 943.1,542.5 943.1,542.5 C943.1,542.5 946.1,540.1 951.8,537.6 C954.6,536.3 958.1,535.1 962.2,534 C964.3,533.5 966.5,533 968.9,532.6 C971.3,532.3 973.8,531.8 976.4,531.4 C981.6,530.6 987.5,530.2 994.1,530.4 C997.4,530.5 1000.9,530.8 1004.6,531.2 C1008.3,531.7 1012,531.9 1016,532.5 C1023.9,533.6 1032.7,535.5 1042.4,538.2 C1047.2,539.5 1052.4,541.3 1057.5,542.9 C1062.6,544.7 1068,546.6 1073.7,548.8" id="Shape"></path>
                    <path d="M964,426.7 C962.8,428.5 961.6,430.3 960.5,432 C959.2,433.6 958,435.2 956.9,436.9 C954.6,440.2 952.6,443.5 950.9,446.8 C950.1,448.5 949.1,450.1 948.2,451.6 C947.3,453.1 946.4,454.7 945.6,456.2 C944,459.3 942.6,462.4 941.4,465.5 C940.2,468.5 939.3,471.8 938.3,474.6 C937.3,477.4 936.5,480.3 935.8,483.1 C934.5,488.7 933.7,494.1 933.4,499.1 C932.8,509.2 934.1,517.8 935.6,523.7 C937.1,529.7 938.9,533 938.9,533 C938.9,533 942.5,532.1 947.7,529.2 C950.3,527.7 953.3,525.8 956.5,523.2 C958.1,521.9 959.7,520.5 961.3,518.9 C962.9,517.4 964.4,515.4 965.8,513.3 C968.6,509.1 971.3,504.1 973.3,498.5 C974.3,495.7 975.2,492.7 975.9,489.5 C976.6,486.4 976.9,482.7 977,479 C977.2,471.6 976.5,463.6 974.6,454.9 C973.6,450.5 972.4,446.2 970.5,441.4 C968.7,436.7 966.5,431.8 964,426.7" id="Shape"></path>
                    <path d="M1143.6,452 C1139.3,458.4 1134.4,463.9 1130,469 C1125.5,474.1 1121.2,478.7 1116.5,482.4 C1111.9,486.2 1107.5,489.6 1103.3,492.5 C1101.2,493.9 1099.1,495.3 1097.1,496.5 C1095,497.6 1092.8,498.7 1090.8,499.6 C1082.6,503.3 1075.3,505.5 1068.7,506.6 C1065.5,507.2 1062.3,507.4 1059.3,507.3 C1056.3,507.2 1053.6,507 1051,506.6 C1040.7,505 1033.6,501 1028.9,497.6 C1024.3,494.2 1022.1,491.3 1022.1,491.3 C1022.1,491.3 1024.3,488.2 1029,484.2 C1030.2,483.2 1031.5,482.1 1033,481 C1034.5,479.9 1036.1,478.8 1037.8,477.5 C1041.2,475 1045.2,472.4 1049.9,470 C1052.3,468.8 1054.8,467.6 1057.6,466.5 C1060.4,465.4 1063,464.1 1066.1,463 C1072.1,460.7 1078.9,458.7 1086.7,457.1 C1090.7,456.4 1094.5,455.5 1098.7,454.8 C1102.9,454.1 1107.4,453.5 1112.1,453.1 C1121.5,452.2 1132.3,451.9 1143.6,452" id="Shape"></path>
                    <path d="M1008.7,378.3 C1007.4,382.8 1005.8,386.6 1004.8,390.6 C1003.7,394.6 1003,398.5 1002,402 C1001.1,405.6 1000.5,409.1 1000,412.5 C999.8,414.2 999.6,415.9 999.5,417.6 C999.3,419.2 999.1,420.7 998.9,422.3 C998.3,428.5 998.4,434.5 998.9,440.1 C999.2,442.9 999.5,445.5 999.9,448 C1000.3,450.5 1000.7,452.9 1001.3,455.2 C1003.5,464.4 1007,471.7 1010,476.6 C1013,481.5 1015.6,484 1015.6,484 C1015.6,484 1018.8,482.1 1023,477.8 C1024,476.7 1025.2,475.5 1026.3,474.2 C1027.5,472.9 1028.6,471.3 1029.6,469.5 C1031.6,465.9 1033.6,461.8 1035.1,457.1 C1035.9,454.8 1036.6,452.3 1037.1,449.7 C1037.7,447.1 1037.7,444.1 1037.8,441.2 C1037.9,435.2 1037.3,428.8 1035.6,422.2 C1034.8,418.9 1033.4,415.3 1031.9,411.7 C1030.3,408.1 1028.5,404.5 1026.3,400.8 C1021.8,393.3 1016.4,386.1 1008.7,378.3" id="Shape"></path>
                    <path d="M1178.3,345 C1176.1,351.7 1173.3,358 1170.6,363.7 C1167.8,369.4 1165.3,374.7 1162.2,379.4 C1159.2,384.1 1156.2,388.4 1153.2,392.2 C1151.7,394.1 1150.3,395.9 1148.8,397.6 C1147.2,399.3 1145.7,400.9 1144.1,402.3 C1137.9,408.2 1132,412.5 1126.5,415.6 C1120.8,418.6 1115.4,420.4 1110.6,421.4 C1101,423.4 1093.4,422.2 1088.2,420.7 C1083,419.2 1080.2,417.3 1080.2,417.3 C1080.2,417.3 1081.3,413.6 1084.3,408.3 C1085.8,405.6 1087.8,402.5 1090.4,399.1 C1092.7,395.6 1095.6,391.9 1099.2,388.1 C1101,386.2 1103,384.3 1105.1,382.3 C1107.3,380.4 1109.4,378.4 1111.8,376.4 C1116.6,372.4 1122.2,368.5 1128.8,364.8 C1135.2,361 1142.3,357.3 1150.6,354 C1154.7,352.3 1159.1,350.7 1163.8,349.2 C1168.3,347.7 1173.2,346.3 1178.3,345" id="Shape"></path>
                    <path d="M1039,311.8 C1038.7,317 1038.2,321.7 1038,326.2 C1037.8,330.7 1038,335.1 1037.9,339 C1037.9,343 1038.1,346.7 1038.5,350.4 C1038.7,352.2 1039,354 1039.2,355.7 C1039.4,357.4 1039.6,359 1039.9,360.6 C1040.9,366.9 1042.6,372.7 1044.6,377.9 C1046.4,383 1048.5,387.4 1050.8,391.3 C1055.4,399.1 1060.7,404.7 1064.9,408.2 C1069.1,411.7 1072.1,413 1072.1,413 C1072.1,413 1074.4,410.1 1076.9,404.6 C1078.1,401.9 1079.5,398.5 1080.5,394.6 C1081.3,390.6 1081.9,386 1082,381.1 C1082.1,378.6 1082,376 1081.8,373.4 C1081.6,370.8 1080.9,367.9 1080.3,365.1 C1078.9,359.4 1076.7,353.4 1073.5,347.5 C1070.1,341.5 1065.6,335.3 1060,329.3 C1057.2,326.3 1054.1,323.4 1050.6,320.5 C1047.1,317.5 1043.2,314.6 1039,311.8" id="Shape"></path>
                    <path d="M1188.2,241.3 C1187,247.8 1185.7,253.9 1184.3,259.5 C1182.8,265.2 1181.1,270.5 1179.3,275.3 C1175.9,285 1171.5,293.2 1167.5,299.9 C1165.4,303.2 1163.1,306.3 1160.9,308.9 C1158.7,311.6 1156.5,313.9 1154.3,316 C1150,320.1 1145.6,323.1 1141.4,325.3 C1133.1,329.6 1126,330.5 1120.9,330.5 C1115.8,330.5 1112.9,329.4 1112.9,329.4 C1112.9,329.4 1113.1,325.6 1114.6,319.7 C1115.4,316.7 1116.5,313.2 1117.9,309.3 C1119.3,305.4 1121.3,301.1 1123.8,296.6 C1125.1,294.4 1126.3,292 1127.9,289.7 C1129.4,287.4 1131.1,285 1132.9,282.6 C1136.7,277.8 1141,272.9 1146.1,268.1 C1151.2,263.3 1157.4,258.5 1164.2,254 C1171.1,249.5 1179.1,245.2 1188.2,241.3" id="Shape"></path>
                    <path d="M1055.7,231.8 C1055.9,237.4 1056.3,242.7 1056.8,247.7 C1057.3,252.6 1057.8,257.1 1058.6,261.5 C1060.2,270.1 1061.8,277.3 1064.2,283.8 C1065.3,287 1066.4,289.9 1067.7,292.7 C1068.9,295.4 1070.3,298 1071.7,300.4 C1074.5,305.1 1077.4,309 1080.3,312.3 C1086.1,318.8 1092.2,322.7 1096.8,324.9 C1101.4,327.1 1104.5,327.5 1104.5,327.5 C1104.5,327.5 1106,324.1 1107.1,318.2 C1107.7,315.2 1108.1,311.7 1108.1,307.6 C1108.1,303.5 1107.8,298.9 1106.9,294.1 C1106.5,291.7 1105.8,289.1 1105,286.6 C1104.2,284 1103.2,281.4 1102.1,278.7 C1099.9,273.4 1096.8,267.9 1092.7,262.5 C1088.6,257.1 1083.8,251.8 1077.6,246.6 C1071.4,241.2 1064.2,236.3 1055.7,231.8" id="Shape"></path>
                    <path d="M1163.7,144.4 C1165.2,150.1 1166,155.8 1166.7,161 C1167.5,166.1 1167.6,171.3 1167.7,176 C1167.7,180.7 1167.6,185 1167,189.2 C1166.5,193.4 1165.7,197.1 1164.9,200.6 C1164.2,204 1162.8,207.3 1161.7,210.2 C1160.5,213.1 1159.2,215.7 1157.8,218 C1156.5,220.3 1155.1,222.3 1153.4,224.1 C1151.8,225.9 1150.3,227.4 1148.7,228.8 C1142.5,234.1 1136.7,235.9 1132.5,236.6 C1128.3,237.3 1125.6,236.8 1125.6,236.8 C1125.6,236.8 1125.1,233.7 1125.4,228.6 C1125.5,226.1 1126,223 1126.3,219.6 C1126.7,216.2 1127.4,212.4 1128.5,208.2 C1129.4,204.1 1130.6,199.6 1132.4,194.8 C1134.3,189.9 1136.1,184.9 1139,179.5 C1141.9,174.1 1145.1,168.5 1149.1,162.6 C1153.1,156.8 1158.1,150.5 1163.7,144.4" id="Shape"></path>
                    <path d="M1057.1,180.2 C1059,183.8 1060.4,187.1 1062.2,190.2 C1064.1,193.3 1065.4,196.1 1067.1,198.7 C1068.7,201.3 1070.5,203.7 1072,205.9 C1073.5,208.1 1075.1,210.1 1076.8,212 C1078.6,213.9 1079.9,215.5 1081.5,217.1 C1083.1,218.7 1084.7,220.1 1086.3,221.5 C1087.9,222.9 1089.6,224.1 1091,225.2 C1092.5,226.3 1094,227.3 1095.5,228.2 C1101.5,231.9 1107.2,234.1 1111.4,235.2 C1115.6,236.3 1118.3,236.3 1118.3,236.3 C1118.3,236.3 1118.9,233.4 1118.8,228.6 C1118.7,226.2 1118.7,223.3 1117.7,220.1 C1116.8,216.9 1115.6,213.5 1113.9,209.9 C1112,206.4 1109.4,202.8 1106.3,199.4 C1103.3,196 1099,192.8 1094.5,190.1 C1090,187.3 1084.4,185 1078.1,183.3 C1071.9,181.5 1065.1,180.5 1057.1,180.2" id="Shape"></path>
                    <path d="M1122.6,67.7 C1125.1,72.7 1127.1,77.6 1128.8,82.2 C1130.6,86.7 1131.8,91.2 1133,95.4 C1135.3,103.6 1136.1,111.2 1136.5,117.6 C1136.7,120.8 1136.5,123.9 1136.2,126.7 C1135.9,129.5 1135.5,132.1 1135,134.5 C1134,139.2 1132.4,143.2 1130.6,146.4 C1127,152.9 1122.7,156.6 1119.3,158.7 C1115.9,160.8 1113.5,161.4 1113.5,161.4 C1113.5,161.4 1112,158.7 1110.5,153.9 C1109.8,151.5 1109,148.6 1108.2,145.3 C1107.5,142 1106.9,138.2 1106.6,134.1 C1106.2,130 1106,125.5 1106.3,120.6 C1106.7,115.7 1107.1,110.5 1108.3,104.9 C1109.5,99.3 1111.2,93.4 1113.4,87.3 C1115.8,81 1118.9,74.4 1122.6,67.7" id="Shape"></path>
                    <path d="M1034.4,120.2 C1037,123.7 1039.4,127 1041.9,129.9 C1044.4,132.8 1046.6,135.7 1049,138.1 C1053.7,143.1 1057.8,147.3 1062.2,150.6 C1064.4,152.3 1066.3,153.8 1068.3,155.1 C1070.3,156.4 1072.2,157.6 1074.1,158.6 C1078,160.6 1081.5,162 1084.8,163 C1091.4,165 1097.1,165.1 1101,164.7 C1105,164.3 1107.2,163.3 1107.2,163.3 C1107.2,163.3 1106.7,160.3 1104.9,155.8 C1104,153.5 1102.8,150.9 1101,148.1 C1099.2,145.3 1097.1,142.3 1094.4,139.3 C1091.6,136.4 1088.3,133.5 1084.5,130.8 C1080.8,128.1 1076.2,125.8 1071.3,123.9 C1066.4,122 1060.8,120.6 1054.6,119.9 C1048.4,119.3 1041.7,119.3 1034.4,120.2" id="Shape"></path>
                    <path d="M1066.4,0.8 C1070.2,5.5 1074,10 1076.7,14.3 C1079.5,18.6 1082.1,22.6 1084,26.4 C1086,30.3 1087.7,33.9 1089.1,37.3 C1090.4,40.8 1091.5,44 1092.3,47.1 C1094,53.2 1094.5,58.6 1094.6,63.3 C1094.7,67.9 1094.1,71.9 1093.2,75.3 C1091.4,82 1088.3,86.3 1085.7,88.9 C1083.1,91.5 1081.1,92.4 1081.1,92.4 C1081.1,92.4 1079.1,90.1 1076.6,85.7 C1074.2,81.3 1071,75.2 1068.6,67.3 C1067.3,63.4 1066.2,59.1 1065.4,54.4 C1064.5,49.7 1063.8,44.6 1063.6,39.1 C1063.3,33.6 1063.3,27.7 1063.8,21.4 C1064.2,15 1065,8.1 1066.4,0.8" id="Shape"></path>
                    <path d="M1000.4,66.2 L1000.6,66.4 L1000.9,66.6 L1001.4,67.1 L1002.5,68 C1003.2,68.6 1003.9,69.2 1004.6,69.8 C1006,70.9 1007.4,72 1008.8,73.3 C1011.6,75.7 1014.3,77.6 1016.9,79.8 C1019.5,81.9 1022.1,83.6 1024.5,85.3 C1026.9,87 1029.3,88.6 1031.6,89.9 C1036.3,92.5 1040.4,94.7 1044.4,96.1 C1048.4,97.5 1052,98.4 1055.2,98.9 C1061.7,99.8 1066.9,99 1070.4,98 C1073.9,96.9 1075.7,95.6 1075.7,95.6 C1075.7,95.6 1074.5,92.8 1071.9,88.7 C1069.3,84.5 1064.7,79.3 1058.6,74.4 C1055.4,72 1051.8,69.7 1047.7,67.7 C1043.6,65.7 1039,64.2 1034.1,63.1 C1029.1,62.1 1023.7,61.8 1018.1,62.1 C1015.3,62.3 1012.3,62.9 1009.4,63.6 C1007.9,64 1006.4,64.4 1004.9,64.8 C1004.2,65 1003.4,65.3 1002.6,65.5 L1001.5,65.9 L1000.9,66.1 L1000.6,66.2 L1000.5,66.3 L1000.4,66.2 Z" id="Shape"></path>
                </g>
            </g>
        </g>
    </g>
</svg>
