<?xml version="1.0" encoding="utf-8"?>
<!-- Generator: Adobe Illustrator 22.1.0, SVG Export Plug-In . SVG Version: 6.00 Build 0)  -->
<svg version="1.1" id="Layer_1" xmlns="http://www.w3.org/2000/svg" xmlns:xlink="http://www.w3.org/1999/xlink" x="0px" y="0px"
	 viewBox="0 0 535.7 61.1" style="enable-background:new 0 0 535.7 61.1;" xml:space="preserve">
<style type="text/css">
	.st0{fill:#231F20;}
	.st1{fill:#929497;}
	.st2{fill:#F9A21E;}
	.st3{fill:url(#SVGID_1_);}
	.st4{opacity:0.5;fill:url(#SVGID_2_);enable-background:new    ;}
	.st5{fill:url(#SVGID_3_);}
	.st6{fill:url(#SVGID_4_);}
</style>
<g id="Logo_on_white">
	<g>
		<path class="st0" d="M121.3,3.7c0,0.6,0,1.1-0.1,1.5S121,6,120.9,6.3s-0.3,0.5-0.5,0.6s-0.4,0.2-0.7,0.2h-17v52.4
			c0,0.3-0.1,0.5-0.2,0.7c-0.1,0.2-0.3,0.3-0.7,0.4c-0.3,0.1-0.7,0.2-1.2,0.3c-0.5,0.1-1.2,0.1-1.9,0.1s-1.4,0-1.9-0.1
			s-0.9-0.2-1.3-0.3c-0.3-0.1-0.5-0.3-0.6-0.4c-0.1-0.2-0.2-0.4-0.2-0.7V7.1h-17c-0.2,0-0.5-0.1-0.7-0.2c-0.2-0.1-0.4-0.3-0.5-0.6
			s-0.2-0.6-0.3-1.1c-0.1-0.4-0.1-1-0.1-1.5c0-0.6,0-1.1,0.1-1.6s0.2-0.8,0.3-1.1s0.3-0.5,0.5-0.6s0.4-0.2,0.7-0.2h42.1
			c0.3,0,0.5,0.1,0.7,0.2c0.2,0.1,0.4,0.3,0.5,0.6s0.2,0.6,0.3,1.1C121.3,2.6,121.3,3.1,121.3,3.7z"/>
		<path class="st0" d="M172.9,59.5c0,0.3,0,0.5-0.2,0.7c-0.1,0.2-0.3,0.3-0.6,0.5c-0.3,0.1-0.7,0.2-1.3,0.3
			c-0.6,0.1-1.3,0.1-2.2,0.1c-0.8,0-1.5,0-2-0.1s-0.9-0.2-1.2-0.3c-0.3-0.1-0.6-0.3-0.7-0.6c-0.2-0.2-0.3-0.6-0.5-0.9l-5.6-14.3
			c-0.7-1.6-1.3-3.1-2-4.5s-1.5-2.5-2.5-3.5s-2.1-1.7-3.4-2.3c-1.3-0.5-2.9-0.8-4.7-0.8h-5.4v25.8c0,0.3-0.1,0.5-0.2,0.7
			c-0.1,0.2-0.4,0.3-0.7,0.4s-0.7,0.2-1.2,0.3c-0.5,0.1-1.2,0.1-1.9,0.1c-0.8,0-1.4,0-1.9-0.1s-0.9-0.2-1.2-0.3
			c-0.3-0.1-0.5-0.3-0.7-0.4c-0.1-0.2-0.2-0.4-0.2-0.7v-56c0-1.2,0.3-2.1,1-2.6c0.6-0.5,1.3-0.7,2-0.7h12.9c1.5,0,2.8,0,3.8,0.1
			s1.9,0.2,2.7,0.3c2.3,0.4,4.4,1,6.2,1.9s3.3,2,4.5,3.3s2.1,2.9,2.7,4.6c0.6,1.7,0.9,3.6,0.9,5.7c0,2-0.3,3.8-0.8,5.5
			c-0.5,1.6-1.3,3-2.4,4.2c-1,1.2-2.3,2.3-3.7,3.2c-1.4,0.9-3,1.7-4.8,2.3c1,0.4,1.9,1,2.7,1.7s1.6,1.5,2.3,2.4s1.4,2,2,3.2
			s1.2,2.6,1.9,4.1l5.4,13.3c0.4,1.1,0.7,1.9,0.8,2.4C172.8,58.9,172.9,59.2,172.9,59.5z M160.8,17c0-2.4-0.5-4.4-1.6-6
			s-2.8-2.8-5.3-3.5c-0.8-0.2-1.7-0.4-2.6-0.5c-1-0.1-2.3-0.1-3.9-0.1h-6.8v20.4h7.9c2.1,0,3.9-0.3,5.5-0.8c1.5-0.5,2.8-1.2,3.9-2.2
			c1-0.9,1.8-2,2.3-3.2C160.6,19.8,160.8,18.5,160.8,17z"/>
		<path class="st0" d="M226.8,38.1c0,3.6-0.5,6.8-1.6,9.7c-1.1,2.8-2.6,5.2-4.5,7.2c-2,2-4.4,3.4-7.2,4.5c-2.8,1-6,1.5-9.6,1.5
			c-3.3,0-6.3-0.5-9-1.4s-5-2.4-6.9-4.2c-1.9-1.9-3.4-4.2-4.5-7c-1-2.8-1.6-6-1.6-9.7v-37c0-0.2,0.1-0.5,0.2-0.6
			c0.1-0.2,0.3-0.3,0.6-0.4c0.3-0.1,0.7-0.2,1.2-0.3s1.1-0.1,1.9-0.1c0.7,0,1.4,0,1.9,0.1s0.9,0.2,1.2,0.3c0.3,0.1,0.5,0.3,0.6,0.4
			c0.1,0.2,0.2,0.4,0.2,0.6v36c0,2.8,0.3,5.2,1,7.2c0.7,2.1,1.7,3.8,2.9,5.1c1.3,1.4,2.8,2.4,4.6,3.1c1.8,0.7,3.8,1,6.1,1
			c2.3,0,4.3-0.3,6.1-1c1.8-0.7,3.3-1.7,4.6-3c1.2-1.4,2.2-3,2.8-5c0.7-2,1-4.3,1-7V1.7c0-0.2,0.1-0.5,0.2-0.6
			c0.1-0.2,0.3-0.3,0.6-0.4c0.3-0.1,0.7-0.2,1.2-0.3s1.1-0.1,1.9-0.1c0.7,0,1.4,0,1.9,0.1s0.9,0.2,1.2,0.3c0.3,0.1,0.5,0.3,0.6,0.4
			c0.1,0.2,0.2,0.4,0.2,0.6v36.4H226.8z"/>
		<path class="st0" d="M272.1,43.5c0,2.8-0.5,5.2-1.5,7.4c-1,2.2-2.4,4-4.2,5.5c-1.8,1.5-3.9,2.6-6.4,3.4s-5.1,1.1-7.9,1.1
			c-2,0-3.8-0.2-5.5-0.5s-3.2-0.7-4.5-1.2s-2.4-1-3.3-1.5s-1.5-1-1.9-1.3c-0.4-0.4-0.6-0.8-0.8-1.4c-0.2-0.6-0.3-1.3-0.3-2.3
			c0-0.7,0-1.2,0.1-1.7c0.1-0.4,0.1-0.8,0.3-1.1c0.1-0.3,0.3-0.5,0.5-0.6s0.4-0.2,0.6-0.2c0.4,0,1,0.3,1.8,0.8s1.8,1.1,3,1.7
			s2.7,1.2,4.4,1.7c1.7,0.5,3.7,0.8,6,0.8c1.7,0,3.3-0.2,4.7-0.7c1.4-0.5,2.6-1.1,3.7-1.9c1-0.8,1.8-1.9,2.3-3.1s0.8-2.6,0.8-4.1
			c0-1.7-0.4-3.1-1.1-4.3c-0.8-1.2-1.8-2.2-3-3.1c-1.3-0.9-2.7-1.7-4.3-2.5c-1.6-0.7-3.2-1.5-4.9-2.3c-1.7-0.8-3.3-1.6-4.9-2.6
			c-1.6-0.9-3-2-4.2-3.3c-1.3-1.3-2.3-2.8-3-4.5c-0.8-1.7-1.2-3.8-1.2-6.2c0-2.5,0.4-4.7,1.4-6.6c0.9-1.9,2.1-3.6,3.7-4.9
			c1.6-1.3,3.5-2.3,5.7-3s4.6-1,7.1-1c1.3,0,2.6,0.1,3.9,0.3s2.6,0.5,3.7,0.9c1.2,0.4,2.2,0.8,3.1,1.3s1.5,0.9,1.8,1.1
			c0.3,0.3,0.5,0.5,0.6,0.7s0.2,0.4,0.2,0.6c0.1,0.3,0.1,0.6,0.1,0.9c0,0.4,0.1,0.8,0.1,1.4c0,0.6,0,1-0.1,1.5
			c0,0.4-0.1,0.8-0.2,1.1s-0.2,0.5-0.4,0.6c-0.2,0.1-0.4,0.2-0.6,0.2c-0.3,0-0.9-0.2-1.6-0.6c-0.7-0.4-1.6-0.9-2.6-1.4
			s-2.3-1-3.7-1.5c-1.4-0.4-3-0.7-4.8-0.7c-1.6,0-3.1,0.2-4.3,0.7c-1.2,0.4-2.2,1-3,1.8c-0.8,0.7-1.4,1.6-1.8,2.6s-0.6,2.1-0.6,3.2
			c0,1.6,0.4,3,1.1,4.2c0.8,1.2,1.8,2.2,3,3.1c1.3,0.9,2.7,1.7,4.3,2.5c1.6,0.8,3.3,1.5,4.9,2.3c1.7,0.8,3.3,1.6,4.9,2.5
			s3,2,4.3,3.3s2.3,2.8,3,4.5C271.7,39.2,272.1,41.2,272.1,43.5z"/>
		<path class="st0" d="M322.1,3.7c0,0.6,0,1.1-0.1,1.5s-0.2,0.8-0.3,1.1c-0.1,0.3-0.3,0.5-0.5,0.6s-0.4,0.2-0.7,0.2h-17v52.4
			c0,0.2-0.1,0.5-0.2,0.7s-0.3,0.3-0.7,0.4c-0.3,0.1-0.7,0.2-1.2,0.3c-0.5,0.1-1.2,0.1-1.9,0.1c-0.8,0-1.4,0-1.9-0.1s-1-0.2-1.3-0.3
			c-0.3-0.1-0.5-0.3-0.7-0.4c-0.1-0.2-0.2-0.4-0.2-0.7V7h-17c-0.2,0-0.5-0.1-0.7-0.2c-0.2-0.1-0.4-0.3-0.5-0.6s-0.2-0.6-0.3-1.1
			c-0.1-0.4-0.1-0.9-0.1-1.5s0-1.1,0.1-1.6s0.2-0.8,0.3-1.1c0.1-0.3,0.3-0.5,0.5-0.6s0.4-0.2,0.7-0.2h42c0.2,0,0.5,0.1,0.7,0.2
			c0.2,0.1,0.4,0.3,0.5,0.6s0.2,0.6,0.3,1.1C322,2.6,322.1,3.1,322.1,3.7z"/>
		<path class="st1" d="M368.8,17.9c0,3-0.5,5.8-1.5,8.2c-1,2.4-2.4,4.5-4.3,6.2s-4.1,3-6.8,4c-2.7,0.9-5.9,1.4-9.7,1.4h-6.9v21.8
			c0,0.3-0.1,0.5-0.2,0.7s-0.4,0.3-0.7,0.4c-0.3,0.1-0.7,0.2-1.2,0.3c-0.5,0.1-1.2,0.1-1.9,0.1c-0.8,0-1.4,0-1.9-0.1
			s-0.9-0.2-1.2-0.3c-0.3-0.1-0.5-0.3-0.7-0.4c-0.1-0.2-0.2-0.4-0.2-0.7V3.7c0-1.2,0.3-2.1,1-2.7c0.7-0.5,1.4-0.8,2.2-0.8h12.9
			c1.3,0,2.6,0.1,3.8,0.2c1.2,0.1,2.6,0.3,4.2,0.7s3.3,1,5,2s3.1,2.2,4.3,3.6c1.2,1.4,2.1,3.1,2.7,5
			C368.5,13.6,368.8,15.7,368.8,17.9z M360.3,18.6c0-2.5-0.5-4.5-1.4-6.2s-2.1-2.9-3.4-3.7c-1.4-0.8-2.8-1.3-4.2-1.5
			c-1.5-0.2-2.9-0.3-4.2-0.3h-7.4v24.3h7.2c2.4,0,4.4-0.3,6-0.9s3-1.5,4-2.6c1.1-1.1,1.9-2.4,2.5-4S360.3,20.4,360.3,18.6z"/>
		<path class="st1" d="M387.8,59.5c0,0.2-0.1,0.5-0.2,0.6c-0.1,0.2-0.3,0.3-0.7,0.4c-0.3,0.1-0.7,0.2-1.2,0.3
			c-0.5,0.1-1.2,0.1-1.9,0.1c-0.7,0-1.4,0-1.9-0.1s-1-0.2-1.3-0.3c-0.3-0.1-0.5-0.3-0.7-0.4c-0.1-0.2-0.2-0.4-0.2-0.6V1.7
			c0-0.3,0.1-0.5,0.2-0.7s0.4-0.3,0.7-0.4c0.3-0.1,0.7-0.2,1.2-0.3s1.1-0.1,1.8-0.1c0.8,0,1.4,0,1.9,0.1s0.9,0.2,1.2,0.3
			c0.3,0.1,0.5,0.3,0.7,0.4c0.1,0.2,0.2,0.4,0.2,0.7v57.8H387.8z"/>
		<path class="st1" d="M434,57.5c0,0.6,0,1.1-0.1,1.6c-0.1,0.4-0.2,0.8-0.3,1.1c-0.1,0.3-0.3,0.5-0.5,0.6s-0.4,0.2-0.7,0.2h-26.7
			c-0.7,0-1.4-0.2-2-0.7s-1-1.3-1-2.5v-56c0-0.2,0.1-0.5,0.2-0.7s0.3-0.3,0.6-0.4c0.3-0.1,0.7-0.2,1.3-0.3c0.5-0.1,1.2-0.1,1.9-0.1
			c0.8,0,1.4,0,1.9,0.1s0.9,0.2,1.2,0.3c0.3,0.1,0.5,0.3,0.7,0.4c0.1,0.2,0.2,0.4,0.2,0.7V54h21.7c0.3,0,0.5,0.1,0.7,0.2
			s0.4,0.3,0.5,0.6c0.1,0.3,0.2,0.6,0.3,1.1C434,56.3,434,56.9,434,57.5z"/>
		<path class="st1" d="M488.8,29.9c0,4.8-0.6,9.1-1.7,12.9c-1.1,3.8-2.8,7.1-5,9.8c-2.2,2.7-5,4.7-8.4,6.2
			c-3.4,1.4-7.3,2.2-11.8,2.2c-4.4,0-8.3-0.7-11.5-2s-5.9-3.2-8-5.8c-2.1-2.5-3.7-5.6-4.7-9.4c-1-3.7-1.6-8-1.6-12.9
			c0-4.6,0.6-8.9,1.7-12.7c1.1-3.8,2.8-7,5.1-9.7c2.2-2.7,5-4.7,8.4-6.1c3.4-1.4,7.3-2.2,11.8-2.2c4.3,0,8.1,0.7,11.3,2
			s5.9,3.2,8,5.7s3.7,5.6,4.8,9.3C488.3,20.9,488.8,25.1,488.8,29.9z M480.5,30.4c0-3.3-0.3-6.4-0.9-9.3c-0.6-2.9-1.6-5.3-3-7.5
			c-1.4-2.1-3.2-3.8-5.5-4.9c-2.3-1.2-5.2-1.8-8.5-1.8c-3.4,0-6.2,0.6-8.5,1.9c-2.3,1.3-4.2,3-5.6,5.1c-1.4,2.1-2.5,4.6-3.1,7.4
			s-0.9,5.8-0.9,8.9c0,3.5,0.3,6.6,0.9,9.6c0.6,2.9,1.5,5.4,2.9,7.5s3.2,3.8,5.5,4.9c2.3,1.2,5.2,1.8,8.6,1.8c3.4,0,6.3-0.6,8.6-1.9
			s4.2-3,5.6-5.2c1.4-2.2,2.4-4.7,3-7.5C480.2,36.6,480.5,33.6,480.5,30.4z"/>
		<path class="st1" d="M535.7,3.7c0,0.6,0,1.1-0.1,1.5s-0.2,0.8-0.3,1.1s-0.3,0.5-0.5,0.6s-0.4,0.2-0.7,0.2h-17v52.4
			c0,0.3-0.1,0.5-0.2,0.7c-0.1,0.2-0.3,0.3-0.6,0.4s-0.7,0.2-1.2,0.3c-0.5,0.1-1.2,0.1-1.9,0.1s-1.4,0-1.9-0.1s-1-0.2-1.3-0.3
			c-0.3-0.1-0.5-0.3-0.7-0.4c-0.1-0.2-0.2-0.4-0.2-0.7V7.1h-17c-0.2,0-0.5-0.1-0.7-0.2c-0.2-0.1-0.4-0.3-0.5-0.6s-0.2-0.6-0.3-1.1
			c-0.1-0.4-0.1-1-0.1-1.5c0-0.6,0-1.1,0.1-1.6s0.2-0.8,0.3-1.1s0.3-0.5,0.5-0.6s0.4-0.2,0.7-0.2h42.1c0.2,0,0.5,0.1,0.7,0.2
			c0.2,0.1,0.4,0.3,0.5,0.6s0.2,0.6,0.3,1.1C535.7,2.6,535.7,3.1,535.7,3.7z"/>
		<path class="st2" d="M0.1,1.3V27c0,0,19.4,9.3,29.3,25.8c0,0,4.4-36.6,28.8-51.5C58.2,1.3,0.1,1.3,0.1,1.3z"/>
		
			<linearGradient id="SVGID_1_" gradientUnits="userSpaceOnUse" x1="29.1" y1="2.5" x2="29.1" y2="35.7" gradientTransform="matrix(1 0 0 -1 0 62)">
			<stop  offset="0" style="stop-color:#E37A26"/>
			<stop  offset="0.4725" style="stop-color:#F9A21E"/>
		</linearGradient>
		<path class="st3" d="M0,48.1v11.4h26.1C26.1,59.5,16.2,48.9,0,48.1z M33.2,59.5h25V26.3C44,30.1,33.2,59.5,33.2,59.5z"/>
		
			<linearGradient id="SVGID_2_" gradientUnits="userSpaceOnUse" x1="28.95" y1="38.0543" x2="28.95" y2="60.3414" gradientTransform="matrix(1 0 0 -1 0 62)">
			<stop  offset="0" style="stop-color:#FFFFFF"/>
			<stop  offset="1" style="stop-color:#F9A21E"/>
		</linearGradient>
		<path class="st4" d="M0.4,1.7h57.1c0,0-9.4,3.3-19.5,21.9c0,0-22.1,2.2-37.6-4.5V1.7z"/>
		<g>
			
				<linearGradient id="SVGID_3_" gradientUnits="userSpaceOnUse" x1="58.1" y1="60.7" x2="58.1" y2="60.7" gradientTransform="matrix(1 0 0 -1 0 62)">
				<stop  offset="0" style="stop-color:#484848"/>
				<stop  offset="1" style="stop-color:#000000"/>
			</linearGradient>
			<path class="st5" d="M58.1,1.3L58.1,1.3"/>
			
				<linearGradient id="SVGID_4_" gradientUnits="userSpaceOnUse" x1="29.15" y1="60.4442" x2="29.15" y2="2.7277" gradientTransform="matrix(1 0 0 -1 0 62)">
				<stop  offset="0" style="stop-color:#484848"/>
				<stop  offset="1" style="stop-color:#000000"/>
			</linearGradient>
			<path class="st6" d="M29.3,52.8C19.5,36.2,0.1,27,0.1,27v21.2C16.2,49,26.2,59.6,26.2,59.6h7c0,0,10.8-29.4,25-33.2v-25h-0.1
				C33.7,16.3,29.3,52.8,29.3,52.8z"/>
		</g>
	</g>
</g>
</svg>
