<?xml version="1.0" encoding="UTF-8"?>
<svg width="58px" height="20px" viewBox="0 0 58 20" version="1.1" xmlns="http://www.w3.org/2000/svg" xmlns:xlink="http://www.w3.org/1999/xlink">
    <!-- Generator: Sketch 49.1 (51147) - http://www.bohemiancoding.com/sketch -->
    <title>reviews--logo-google-colour</title>
    <desc>Created with Sketch.</desc>
    <defs></defs>
    <g id="Minimal" stroke="none" stroke-width="1" fill="none" fill-rule="evenodd">
        <g id="Minimal/Mobile" transform="translate(-235.000000, -471.000000)" fill-rule="nonzero">
            <g id="Content" transform="translate(-24.000000, -88.000000)">
                <g id="Creds" transform="translate(44.000000, 553.000000)">
                    <g id="Google" transform="translate(153.000000, 1.000000)">
                        <g transform="translate(9.000000, 0.000000)" id="Title">
                            <g transform="translate(2.000000, 0.000000)">
                                <g id="reviews--logo-google-colour" transform="translate(51.000000, 5.000000)">
                                    <path d="M24.8648148,10.134963 C24.8648148,12.8781481 22.7188148,14.8995556 20.0851852,14.8995556 C17.4515556,14.8995556 15.3055556,12.8781481 15.3055556,10.134963 C15.3055556,7.37244444 17.4515556,5.37037037 20.0851852,5.37037037 C22.7188148,5.37037037 24.8648148,7.37244444 24.8648148,10.134963 Z M22.7725185,10.134963 C22.7725185,8.42074074 21.5287407,7.24785185 20.0851852,7.24785185 C18.6416296,7.24785185 17.3978519,8.42074074 17.3978519,10.134963 C17.3978519,11.832 18.6416296,13.0220741 20.0851852,13.0220741 C21.5287407,13.0220741 22.7725185,11.8298519 22.7725185,10.134963 Z" id="Shape" fill="#EA4335"></path>
                                    <path d="M35.1759259,10.134963 C35.1759259,12.8781481 33.0299259,14.8995556 30.3962963,14.8995556 C27.7626667,14.8995556 25.6166667,12.8781481 25.6166667,10.134963 C25.6166667,7.37459259 27.7626667,5.37037037 30.3962963,5.37037037 C33.0299259,5.37037037 35.1759259,7.37244444 35.1759259,10.134963 Z M33.0836296,10.134963 C33.0836296,8.42074074 31.8398519,7.24785185 30.3962963,7.24785185 C28.9527407,7.24785185 27.708963,8.42074074 27.708963,10.134963 C27.708963,11.832 28.9527407,13.0220741 30.3962963,13.0220741 C31.8398519,13.0220741 33.0836296,11.8298519 33.0836296,10.134963 Z" id="Shape" fill="#FBBC05"></path>
                                    <path d="M45.0574074,5.65822222 L45.0574074,14.2121481 C45.0574074,17.7308148 42.9822963,19.1679259 40.5291111,19.1679259 C38.2198519,19.1679259 36.83,17.6234074 36.3058519,16.3602963 L38.1274815,15.602 C38.4518519,16.3774815 39.2466667,17.2925926 40.526963,17.2925926 C42.0972593,17.2925926 43.0703704,16.3237778 43.0703704,14.5 L43.0703704,13.8147407 L42.9973333,13.8147407 C42.529037,14.3925926 41.6268148,14.8974074 40.4882963,14.8974074 C38.106,14.8974074 35.9234815,12.8222963 35.9234815,10.1521481 C35.9234815,7.46266667 38.106,5.37037037 40.4882963,5.37037037 C41.6246667,5.37037037 42.5268889,5.87518519 42.9973333,6.43585185 L43.0703704,6.43585185 L43.0703704,5.66037037 L45.0574074,5.66037037 L45.0574074,5.65822222 Z M43.2185926,10.1521481 C43.2185926,8.47444444 42.0994074,7.24785185 40.6751852,7.24785185 C39.2316296,7.24785185 38.0222222,8.47444444 38.0222222,10.1521481 C38.0222222,11.8126667 39.2316296,13.0220741 40.6751852,13.0220741 C42.0994074,13.0220741 43.2185926,11.8126667 43.2185926,10.1521481 Z" id="Shape" fill="#4285F4"></path>
                                    <polygon id="Shape" fill="#34A853" points="48.3333333 0.644444444 48.3333333 14.6074074 46.2925926 14.6074074 46.2925926 0.644444444"></polygon>
                                    <path d="M56.2857778,11.7031111 L57.9097778,12.7857778 C57.3856296,13.5612593 56.1225185,14.8974074 53.94,14.8974074 C51.2333333,14.8974074 49.2119259,12.8051111 49.2119259,10.1328148 C49.2119259,7.29940741 51.2505185,5.36822222 53.7058519,5.36822222 C56.1783704,5.36822222 57.3877778,7.33592593 57.783037,8.39925926 L58,8.94059259 L51.6307407,11.5785185 C52.1183704,12.5344444 52.8766667,13.0220741 53.94,13.0220741 C55.0054815,13.0220741 55.7444444,12.4979259 56.2857778,11.7031111 Z M51.287037,9.98888889 L55.5446667,8.22096296 C55.3105185,7.62592593 54.6059259,7.21133333 53.7767407,7.21133333 C52.7134074,7.21133333 51.2333333,8.15007407 51.287037,9.98888889 Z" id="Shape" fill="#EA4335"></path>
                                    <path d="M7.58081481,8.89548148 L7.58081481,6.87407407 L14.3925926,6.87407407 C14.4591852,7.22637037 14.4935556,7.64311111 14.4935556,8.09422222 C14.4935556,9.61081481 14.078963,11.4861481 12.7428148,12.8222963 C11.4431852,14.1756296 9.78266667,14.8974074 7.58296296,14.8974074 C3.50577778,14.8974074 0.0773333333,11.5763704 0.0773333333,7.49918519 C0.0773333333,3.422 3.50577778,0.100962963 7.58296296,0.100962963 C9.83851852,0.100962963 11.4453333,0.986 12.6525926,2.13955556 L11.2262222,3.56592593 C10.3605185,2.75392593 9.18762963,2.12237037 7.58081481,2.12237037 C4.60348148,2.12237037 2.27488889,4.52185185 2.27488889,7.49918519 C2.27488889,10.4765185 4.60348148,12.876 7.58081481,12.876 C9.512,12.876 10.6118519,12.1005185 11.3164444,11.3959259 C11.8878519,10.8245185 12.2637778,10.0082222 12.412,8.89333333 L7.58081481,8.89548148 Z" id="Shape" fill="#4285F4"></path>
                                </g>
                            </g>
                        </g>
                    </g>
                </g>
            </g>
        </g>
    </g>
</svg>